<svg xmlns="http://www.w3.org/2000/svg" xmlns:xlink="http://www.w3.org/1999/xlink" contentStyleType="text/css" data-diagram-type="SEQUENCE" height="1986px" preserveAspectRatio="none" style="width:1614px;height:1986px;background:#FFFFFF;" version="1.1" viewBox="0 0 1614 1986" width="1614px" zoomAndPan="magnify"><title>SOVD Gateway</title><defs/><g><text fill="#000000" font-family="sans-serif" font-size="14" font-weight="bold" lengthAdjust="spacing" textLength="117.9473" x="744.0366" y="27.9951">SOVD Gateway</text><g><title>SOVD Offboard Client</title><rect fill="#000000" fill-opacity="0.00000" height="1787.2344" width="8" x="79.6226" y="118.5938"/><line style="stroke:#181818;stroke-width:0.5;stroke-dasharray:5,5;" x1="83" x2="83" y1="118.5938" y2="1905.8281"/></g><g><title>SOVD Gateway</title><rect fill="#000000" fill-opacity="0.00000" height="1787.2344" width="8" x="239.6528" y="118.5938"/><line style="stroke:#181818;stroke-width:0.5;stroke-dasharray:5,5;" x1="243.3735" x2="243.3735" y1="118.5938" y2="1905.8281"/></g><g><title>mDNS Responder</title><rect fill="#000000" fill-opacity="0.00000" height="1787.2344" width="8" x="666.9805" y="118.5938"/><line style="stroke:#181818;stroke-width:0.5;stroke-dasharray:5,5;" x1="670.2588" x2="670.2588" y1="118.5938" y2="1905.8281"/></g><g><title>Chassis SOVD Server</title><rect fill="#000000" fill-opacity="0.00000" height="1787.2344" width="8" x="944.3979" y="118.5938"/><line style="stroke:#181818;stroke-width:0.5;stroke-dasharray:5,5;" x1="948.3613" x2="948.3613" y1="118.5938" y2="1905.8281"/></g><g><title>Classic Diagnostics Adapter</title><rect fill="#000000" fill-opacity="0.00000" height="1787.2344" width="8" x="1139.6074" y="118.5938"/><line style="stroke:#181818;stroke-width:0.5;stroke-dasharray:5,5;" x1="1143.4346" x2="1143.4346" y1="118.5938" y2="1905.8281"/></g><g><title>Powertrain SOVD Server</title><rect fill="#000000" fill-opacity="0.00000" height="1787.2344" width="8" x="1346.0244" y="118.5938"/><line style="stroke:#181818;stroke-width:0.5;stroke-dasharray:5,5;" x1="1349.7803" x2="1349.7803" y1="118.5938" y2="1905.8281"/></g><g class="participant participant-head" data-participant="Client"><text fill="#000000" font-family="sans-serif" font-size="14" lengthAdjust="spacing" textLength="151.2451" x="5" y="115.292">SOVD Offboard Client</text><ellipse cx="83.6226" cy="50.7969" fill="#E2E2F0" rx="8" ry="8" style="stroke:#181818;stroke-width:0.5;"/><path d="M83.6226,58.7969 L83.6226,85.7969 M70.6226,66.7969 L96.6226,66.7969 M83.6226,85.7969 L70.6226,100.7969 M83.6226,85.7969 L96.6226,100.7969" fill="none" style="stroke:#181818;stroke-width:0.5;"/></g><g class="participant participant-tail" data-participant="Client"><text fill="#000000" font-family="sans-serif" font-size="14" lengthAdjust="spacing" textLength="151.2451" x="5" y="1917.8232">SOVD Offboard Client</text><ellipse cx="83.6226" cy="1929.625" fill="#E2E2F0" rx="8" ry="8" style="stroke:#181818;stroke-width:0.5;"/><path d="M83.6226,1937.625 L83.6226,1964.625 M70.6226,1945.625 L96.6226,1945.625 M83.6226,1964.625 L70.6226,1979.625 M83.6226,1964.625 L96.6226,1979.625" fill="none" style="stroke:#181818;stroke-width:0.5;"/></g><g class="participant participant-head" data-participant="Gateway"><rect fill="#E2E2F0" height="30.2969" rx="2.5" ry="2.5" style="stroke:#181818;stroke-width:0.5;" width="120.5586" x="183.3735" y="87.2969"/><text fill="#000000" font-family="sans-serif" font-size="14" lengthAdjust="spacing" textLength="106.5586" x="190.3735" y="107.292">SOVD Gateway</text></g><g class="participant participant-tail" data-participant="Gateway"><rect fill="#E2E2F0" height="30.2969" rx="2.5" ry="2.5" style="stroke:#181818;stroke-width:0.5;" width="120.5586" x="183.3735" y="1904.8281"/><text fill="#000000" font-family="sans-serif" font-size="14" lengthAdjust="spacing" textLength="106.5586" x="190.3735" y="1924.8232">SOVD Gateway</text></g><g class="participant participant-head" data-participant="MDNS"><rect fill="#E2E2F0" height="30.2969" rx="2.5" ry="2.5" style="stroke:#181818;stroke-width:0.5;" width="137.4434" x="602.2588" y="87.2969"/><text fill="#000000" font-family="sans-serif" font-size="14" lengthAdjust="spacing" textLength="123.4434" x="609.2588" y="107.292">mDNS Responder</text></g><g class="participant participant-tail" data-participant="MDNS"><rect fill="#E2E2F0" height="30.2969" rx="2.5" ry="2.5" style="stroke:#181818;stroke-width:0.5;" width="137.4434" x="602.2588" y="1904.8281"/><text fill="#000000" font-family="sans-serif" font-size="14" lengthAdjust="spacing" textLength="123.4434" x="609.2588" y="1924.8232">mDNS Responder</text></g><g class="participant participant-head" data-participant="A"><rect fill="#E2E2F0" height="30.2969" rx="2.5" ry="2.5" style="stroke:#181818;stroke-width:0.5;" width="162.0732" x="867.3613" y="87.2969"/><text fill="#000000" font-family="sans-serif" font-size="14" lengthAdjust="spacing" textLength="148.0732" x="874.3613" y="107.292">Chassis SOVD Server</text></g><g class="participant participant-tail" data-participant="A"><rect fill="#E2E2F0" height="30.2969" rx="2.5" ry="2.5" style="stroke:#181818;stroke-width:0.5;" width="162.0732" x="867.3613" y="1904.8281"/><text fill="#000000" font-family="sans-serif" font-size="14" lengthAdjust="spacing" textLength="148.0732" x="874.3613" y="1924.8232">Chassis SOVD Server</text></g><g class="participant participant-head" data-participant="B"><rect fill="#E2E2F0" height="30.2969" rx="2.5" ry="2.5" style="stroke:#181818;stroke-width:0.5;" width="208.3457" x="1039.4346" y="87.2969"/><text fill="#000000" font-family="sans-serif" font-size="14" lengthAdjust="spacing" textLength="194.3457" x="1046.4346" y="107.292">Classic Diagnostics Adapter</text></g><g class="participant participant-tail" data-participant="B"><rect fill="#E2E2F0" height="30.2969" rx="2.5" ry="2.5" style="stroke:#181818;stroke-width:0.5;" width="208.3457" x="1039.4346" y="1904.8281"/><text fill="#000000" font-family="sans-serif" font-size="14" lengthAdjust="spacing" textLength="194.3457" x="1046.4346" y="1924.8232">Classic Diagnostics Adapter</text></g><g class="participant participant-head" data-participant="C"><rect fill="#E2E2F0" height="30.2969" rx="2.5" ry="2.5" style="stroke:#181818;stroke-width:0.5;" width="184.4883" x="1257.7803" y="87.2969"/><text fill="#000000" font-family="sans-serif" font-size="14" lengthAdjust="spacing" textLength="170.4883" x="1264.7803" y="107.292">Powertrain SOVD Server</text></g><g class="participant participant-tail" data-participant="C"><rect fill="#E2E2F0" height="30.2969" rx="2.5" ry="2.5" style="stroke:#181818;stroke-width:0.5;" width="184.4883" x="1257.7803" y="1904.8281"/><text fill="#000000" font-family="sans-serif" font-size="14" lengthAdjust="spacing" textLength="170.4883" x="1264.7803" y="1924.8232">Powertrain SOVD Server</text></g><rect fill="#EEEEEE" height="3" style="stroke:#EEEEEE;stroke-width:1;" width="1607.0205" x="0" y="149.1602"/><line style="stroke:#000000;stroke-width:1;" x1="0" x2="1607.0205" y1="149.1602" y2="149.1602"/><line style="stroke:#000000;stroke-width:1;" x1="0" x2="1607.0205" y1="152.1602" y2="152.1602"/><rect fill="#EEEEEE" height="23.1328" style="stroke:#000000;stroke-width:2;" width="197.5298" x="704.7454" y="138.5938"/><text fill="#000000" font-family="sans-serif" font-size="13" font-weight="bold" lengthAdjust="spacing" textLength="179.0039" x="710.7454" y="154.6606">Service Discovery Phase</text><g class="message" data-participant-1="A" data-participant-2="MDNS"><polygon fill="#181818" points="681.9805,188.8594,671.9805,192.8594,681.9805,196.8594,677.9805,192.8594" style="stroke:#181818;stroke-width:1;"/><line style="stroke:#181818;stroke-width:1;" x1="675.9805" x2="947.3979" y1="192.8594" y2="192.8594"/><text fill="#000000" font-family="sans-serif" font-size="13" lengthAdjust="spacing" textLength="253.4175" x="687.9805" y="187.7935">Advertise _sovd._tcp.local (port=7690)</text></g><g class="message" data-participant-1="B" data-participant-2="MDNS"><polygon fill="#181818" points="681.9805,217.9922,671.9805,221.9922,681.9805,225.9922,677.9805,221.9922" style="stroke:#181818;stroke-width:1;"/><line style="stroke:#181818;stroke-width:1;" x1="675.9805" x2="1142.6074" y1="221.9922" y2="221.9922"/><text fill="#000000" font-family="sans-serif" font-size="13" lengthAdjust="spacing" textLength="253.4175" x="687.9805" y="216.9263">Advertise _sovd._tcp.local (port=7690)</text></g><g class="message" data-participant-1="MDNS" data-participant-2="Gateway"><polygon fill="#181818" points="254.6528,247.125,244.6528,251.125,254.6528,255.125,250.6528,251.125" style="stroke:#181818;stroke-width:1;"/><line style="stroke:#181818;stroke-width:1;" x1="248.6528" x2="669.9805" y1="251.125" y2="251.125"/><text fill="#000000" font-family="sans-serif" font-size="13" lengthAdjust="spacing" textLength="177.855" x="260.6528" y="246.0591">Notify(ServiceUp, A@7690)</text></g><path d="M248,264.125 L248,304.125 L407,304.125 L407,274.125 L397,264.125 L248,264.125" fill="#FEFFDD" style="stroke:#181818;stroke-width:0.5;"/><path d="M397,264.125 L397,274.125 L407,274.125 L397,264.125" fill="#FEFFDD" style="stroke:#181818;stroke-width:0.5;"/><text fill="#000000" font-family="sans-serif" font-size="13" lengthAdjust="spacing" textLength="123.811" x="254" y="281.1919">mDNS TXT Record:</text><text fill="#000000" font-family="sans-serif" font-size="13" lengthAdjust="spacing" textLength="138.3979" x="254" y="296.3247">OEM_Prefix={entity}</text><g class="message" data-participant-1="Gateway" data-participant-2="A"><polygon fill="#181818" points="936.3979,326.5234,946.3979,330.5234,936.3979,334.5234,940.3979,330.5234" style="stroke:#181818;stroke-width:1;"/><line style="stroke:#181818;stroke-width:1;" x1="243.6528" x2="942.3979" y1="330.5234" y2="330.5234"/><text fill="#000000" font-family="sans-serif" font-size="13" lengthAdjust="spacing" textLength="241.96" x="250.6528" y="325.4575">HTTP GET /{entity-path}/version-info</text></g><g class="message" data-participant-1="A" data-participant-2="Gateway"><polygon fill="#181818" points="254.6528,355.6563,244.6528,359.6563,254.6528,363.6563,250.6528,359.6563" style="stroke:#181818;stroke-width:1;"/><line style="stroke:#181818;stroke-width:1;stroke-dasharray:2,2;" x1="248.6528" x2="947.3979" y1="359.6563" y2="359.6563"/><text fill="#000000" font-family="sans-serif" font-size="13" lengthAdjust="spacing" textLength="538.7129" x="260.6528" y="354.5903">200 OK {"version":"1.0.0","base_uri":"http://chassis.hpc:7690/","vendor_info": {}}</text></g><g class="message" data-participant-1="Gateway" data-participant-2="Gateway"><line style="stroke:#181818;stroke-width:1;" x1="243.6528" x2="285.6528" y1="388.7891" y2="388.7891"/><line style="stroke:#181818;stroke-width:1;" x1="285.6528" x2="285.6528" y1="388.7891" y2="401.7891"/><line style="stroke:#181818;stroke-width:1;" x1="244.6528" x2="285.6528" y1="401.7891" y2="401.7891"/><polygon fill="#181818" points="254.6528,397.7891,244.6528,401.7891,254.6528,405.7891,250.6528,401.7891" style="stroke:#181818;stroke-width:1;"/><text fill="#000000" font-family="sans-serif" font-size="13" lengthAdjust="spacing" textLength="413.1436" x="250.6528" y="383.7231">Update A(version="1.0.0", base_uri) to active UpstreamInfo list</text></g><g class="message" data-participant-1="Gateway" data-participant-2="A"><polygon fill="#181818" points="936.3979,426.9219,946.3979,430.9219,936.3979,434.9219,940.3979,430.9219" style="stroke:#181818;stroke-width:1;"/><line style="stroke:#181818;stroke-width:1;" x1="243.6528" x2="942.3979" y1="430.9219" y2="430.9219"/><text fill="#000000" font-family="sans-serif" font-size="13" lengthAdjust="spacing" textLength="270.0737" x="250.6528" y="425.856">HTTP GET /{entity-path}/entity-collection</text></g><g class="message" data-participant-1="A" data-participant-2="Gateway"><polygon fill="#181818" points="254.6528,456.0547,244.6528,460.0547,254.6528,464.0547,250.6528,460.0547" style="stroke:#181818;stroke-width:1;"/><line style="stroke:#181818;stroke-width:1;stroke-dasharray:2,2;" x1="248.6528" x2="947.3979" y1="460.0547" y2="460.0547"/><text fill="#000000" font-family="sans-serif" font-size="13" lengthAdjust="spacing" textLength="483.7358" x="260.6528" y="454.9888">200 OK {[{"name": "component","translation_id":"id","href":"base_uri"}]}</text></g><g class="message" data-participant-1="Gateway" data-participant-2="Gateway"><line style="stroke:#181818;stroke-width:1;" x1="243.6528" x2="285.6528" y1="489.1875" y2="489.1875"/><line style="stroke:#181818;stroke-width:1;" x1="285.6528" x2="285.6528" y1="489.1875" y2="502.1875"/><line style="stroke:#181818;stroke-width:1;" x1="244.6528" x2="285.6528" y1="502.1875" y2="502.1875"/><polygon fill="#181818" points="254.6528,498.1875,244.6528,502.1875,254.6528,506.1875,250.6528,502.1875" style="stroke:#181818;stroke-width:1;"/><text fill="#000000" font-family="sans-serif" font-size="13" lengthAdjust="spacing" textLength="375.7622" x="250.6528" y="484.1216">Update A(EntityCollection List) to active UpstreamInfo list</text></g><path d="M248,515.1875 L248,691.1875 L849,691.1875 L849,525.1875 L839,515.1875 L248,515.1875" fill="#FEFFDD" style="stroke:#181818;stroke-width:0.5;"/><path d="M839,515.1875 L839,525.1875 L849,525.1875 L839,515.1875" fill="#FEFFDD" style="stroke:#181818;stroke-width:0.5;"/><text fill="#000000" font-family="sans-serif" font-size="13" lengthAdjust="spacing" textLength="12.4033" x="254" y="532.2544">1.</text><text fill="#000000" font-family="sans-serif" font-size="13" lengthAdjust="spacing" textLength="149.0811" x="270.5356" y="532.2544">[derive(Debug, Clone)]</text><text fill="#000000" font-family="sans-serif" font-size="13" lengthAdjust="spacing" textLength="171.3232" x="254" y="547.3872">pub struct UpstreamInfo {</text><text fill="#000000" font-family="sans-serif" font-size="13" lengthAdjust="spacing" textLength="455.3745" x="270.5293" y="562.52">pub instance_name: String,               // e.g. "{entity}._sovd._tcp.local"</text><text fill="#000000" font-family="sans-serif" font-size="13" lengthAdjust="spacing" textLength="422.1763" x="270.5293" y="577.6528">pub hostname: String,                    // e.g. "&lt;SOVD-Server-Host&gt;"</text><text fill="#000000" font-family="sans-serif" font-size="13" lengthAdjust="spacing" textLength="338.9204" x="270.5293" y="592.7856">pub address: Option&lt;IpAddr&gt;,             // resolved IP</text><text fill="#000000" font-family="sans-serif" font-size="13" lengthAdjust="spacing" textLength="279.1445" x="270.5293" y="607.9185">pub port: u16,                           // e.g. 7690</text><text fill="#000000" font-family="sans-serif" font-size="13" lengthAdjust="spacing" textLength="191.4644" x="270.5293" y="623.0513">pub vendor_uri_suffix: String,</text><text fill="#000000" font-family="sans-serif" font-size="13" font-style="italic" lengthAdjust="spacing" textLength="65.6919" x="511.5815" y="623.0513">e.g. "http:</text><text fill="#000000" font-family="sans-serif" font-size="13" lengthAdjust="spacing" textLength="255.8105" x="577.2734" y="623.0513">chassis.hpc:7690/&lt;vendor_uri_suffix&gt;"</text><text fill="#000000" font-family="sans-serif" font-size="13" lengthAdjust="spacing" textLength="284.1719" x="270.5293" y="638.1841">pub version: String,                     // e.g. "v1"</text><text fill="#000000" font-family="sans-serif" font-size="13" lengthAdjust="spacing" textLength="135.002" x="270.5293" y="653.3169">pub base_uri: String,</text><text fill="#000000" font-family="sans-serif" font-size="13" font-style="italic" lengthAdjust="spacing" textLength="65.6919" x="492.3101" y="653.3169">e.g. "http:</text><text fill="#000000" font-family="sans-serif" font-size="13" lengthAdjust="spacing" textLength="276.1548" x="558.002" y="653.3169">chassis.hpc:7690/&lt;vendor_uri_suffix&gt;/v1"</text><text fill="#000000" font-family="sans-serif" font-size="13" lengthAdjust="spacing" textLength="405.5708" x="270.5293" y="668.4497">pub entities: Vec&lt;String&gt;,               // entity-collections url list</text><text fill="#000000" font-family="sans-serif" font-size="13" lengthAdjust="spacing" textLength="8.271" x="254" y="683.5825">}</text><g class="message" data-participant-1="MDNS" data-participant-2="Gateway"><polygon fill="#181818" points="254.6528,713.7813,244.6528,717.7813,254.6528,721.7813,250.6528,717.7813" style="stroke:#181818;stroke-width:1;"/><line style="stroke:#181818;stroke-width:1;" x1="248.6528" x2="669.9805" y1="717.7813" y2="717.7813"/><text fill="#000000" font-family="sans-serif" font-size="13" lengthAdjust="spacing" textLength="177.8804" x="260.6528" y="712.7153">Notify(ServiceUp, B@7690)</text></g><g class="message" data-participant-1="Gateway" data-participant-2="B"><polygon fill="#181818" points="1131.6074,742.9141,1141.6074,746.9141,1131.6074,750.9141,1135.6074,746.9141" style="stroke:#181818;stroke-width:1;"/><line style="stroke:#181818;stroke-width:1;" x1="243.6528" x2="1137.6074" y1="746.9141" y2="746.9141"/><text fill="#000000" font-family="sans-serif" font-size="13" lengthAdjust="spacing" textLength="241.96" x="250.6528" y="741.8481">HTTP GET /{entity-path}/version-info</text></g><g class="message" data-participant-1="B" data-participant-2="Gateway"><polygon fill="#181818" points="254.6528,772.0469,244.6528,776.0469,254.6528,780.0469,250.6528,776.0469" style="stroke:#181818;stroke-width:1;"/><line style="stroke:#181818;stroke-width:1;stroke-dasharray:2,2;" x1="248.6528" x2="1142.6074" y1="776.0469" y2="776.0469"/><text fill="#000000" font-family="sans-serif" font-size="13" lengthAdjust="spacing" textLength="487.0239" x="260.6528" y="770.981">200 OK {"version":"1.0.0","base_uri":"http://cda:7690/","vendor_info": {}}</text></g><g class="message" data-participant-1="Gateway" data-participant-2="Gateway"><line style="stroke:#181818;stroke-width:1;" x1="243.6528" x2="285.6528" y1="805.1797" y2="805.1797"/><line style="stroke:#181818;stroke-width:1;" x1="285.6528" x2="285.6528" y1="805.1797" y2="818.1797"/><line style="stroke:#181818;stroke-width:1;" x1="244.6528" x2="285.6528" y1="818.1797" y2="818.1797"/><polygon fill="#181818" points="254.6528,814.1797,244.6528,818.1797,254.6528,822.1797,250.6528,818.1797" style="stroke:#181818;stroke-width:1;"/><text fill="#000000" font-family="sans-serif" font-size="13" lengthAdjust="spacing" textLength="413.1689" x="250.6528" y="800.1138">Update B(version="1.0.0", base_uri) to active UpstreamInfo list</text></g><g class="message" data-participant-1="Gateway" data-participant-2="B"><polygon fill="#181818" points="1131.6074,843.3125,1141.6074,847.3125,1131.6074,851.3125,1135.6074,847.3125" style="stroke:#181818;stroke-width:1;"/><line style="stroke:#181818;stroke-width:1;" x1="243.6528" x2="1137.6074" y1="847.3125" y2="847.3125"/><text fill="#000000" font-family="sans-serif" font-size="13" lengthAdjust="spacing" textLength="270.0737" x="250.6528" y="842.2466">HTTP GET /{entity-path}/entity-collection</text></g><g class="message" data-participant-1="B" data-participant-2="Gateway"><polygon fill="#181818" points="254.6528,872.4453,244.6528,876.4453,254.6528,880.4453,250.6528,876.4453" style="stroke:#181818;stroke-width:1;"/><line style="stroke:#181818;stroke-width:1;stroke-dasharray:2,2;" x1="248.6528" x2="1142.6074" y1="876.4453" y2="876.4453"/><text fill="#000000" font-family="sans-serif" font-size="13" lengthAdjust="spacing" textLength="483.7358" x="260.6528" y="871.3794">200 OK {[{"name": "component","translation_id":"id","href":"base_uri"}]}</text></g><g class="message" data-participant-1="Gateway" data-participant-2="Gateway"><line style="stroke:#181818;stroke-width:1;" x1="243.6528" x2="285.6528" y1="905.5781" y2="905.5781"/><line style="stroke:#181818;stroke-width:1;" x1="285.6528" x2="285.6528" y1="905.5781" y2="918.5781"/><line style="stroke:#181818;stroke-width:1;" x1="244.6528" x2="285.6528" y1="918.5781" y2="918.5781"/><polygon fill="#181818" points="254.6528,914.5781,244.6528,918.5781,254.6528,922.5781,250.6528,918.5781" style="stroke:#181818;stroke-width:1;"/><text fill="#000000" font-family="sans-serif" font-size="13" lengthAdjust="spacing" textLength="375.7876" x="250.6528" y="900.5122">Update B(EntityCollection List) to active UpstreamInfo list</text></g><path d="M248,931.5781 L248,986.5781 L454,986.5781 L454,941.5781 L444,931.5781 L248,931.5781" fill="#FEFFDD" style="stroke:#181818;stroke-width:0.5;"/><path d="M444,931.5781 L444,941.5781 L454,941.5781 L444,931.5781" fill="#FEFFDD" style="stroke:#181818;stroke-width:0.5;"/><text fill="#000000" font-family="sans-serif" font-size="13" lengthAdjust="spacing" textLength="134.5132" x="254" y="948.645">Active upstream list:</text><text fill="#000000" font-family="sans-serif" font-size="13" lengthAdjust="spacing" textLength="185.2817" x="254" y="963.7778">SOVD Server@7690 (v1.0.0)</text><text fill="#000000" font-family="sans-serif" font-size="13" lengthAdjust="spacing" textLength="129.1113" x="254" y="978.9106">CDA@7690 (v1.0.0)</text><path d="M248,996.9766 L248,1055.9766 L1602,1055.9766 L1602,1006.9766 L1592,996.9766 L248,996.9766" fill="#FEFFDD" style="stroke:#181818;stroke-width:0.5;"/><path d="M1592,996.9766 L1592,1006.9766 L1602,1006.9766 L1592,996.9766" fill="#FEFFDD" style="stroke:#181818;stroke-width:0.5;"/><text fill="#000000" font-family="sans-serif" font-size="13" lengthAdjust="spacing" textLength="55.2944" x="258.1323" y="1016.0435">Instance</text><text fill="#000000" font-family="sans-serif" font-size="13" lengthAdjust="spacing" textLength="66.4663" x="451.958" y="1016.0435">Hostname</text><text fill="#000000" font-family="sans-serif" font-size="13" lengthAdjust="spacing" textLength="68.0913" x="539.0859" y="1016.0435">IP Address</text><text fill="#000000" font-family="sans-serif" font-size="13" lengthAdjust="spacing" textLength="26.2349" x="634.1865" y="1016.0435">Port</text><text fill="#000000" font-family="sans-serif" font-size="13" lengthAdjust="spacing" textLength="114.2769" x="675.5352" y="1016.0435">Vendor URI Suffix</text><text fill="#000000" font-family="sans-serif" font-size="13" lengthAdjust="spacing" textLength="58.1699" x="798.0767" y="1016.0435">Base URI</text><text fill="#000000" font-family="sans-serif" font-size="13" lengthAdjust="spacing" textLength="64.8096" x="1087.1362" y="1016.0435">Entity List</text><text fill="#000000" font-family="sans-serif" font-size="13" lengthAdjust="spacing" textLength="154.1401" x="258.1323" y="1031.1763">chassis._sovd._tcp.local</text><text fill="#000000" font-family="sans-serif" font-size="13" lengthAdjust="spacing" textLength="47.2837" x="451.958" y="1031.1763">chassis</text><text fill="#000000" font-family="sans-serif" font-size="13" lengthAdjust="spacing" textLength="86.8359" x="539.0859" y="1031.1763">192.168.1.10</text><text fill="#000000" font-family="sans-serif" font-size="13" lengthAdjust="spacing" textLength="33.084" x="634.1865" y="1031.1763">7690</text><text fill="#000000" font-family="sans-serif" font-size="13" lengthAdjust="spacing" textLength="62.7275" x="675.5352" y="1031.1763">Mercedes</text><text fill="#000000" font-family="sans-serif" font-size="13" lengthAdjust="spacing" textLength="253.5063" x="798.0767" y="1031.1763">http://chassis:7690/&lt;oem-specific&gt;/v1</text><text fill="#000000" font-family="sans-serif" font-size="13" lengthAdjust="spacing" textLength="495.752" x="1087.1362" y="1031.1763">`{base_uri}/components/Steering`, `http://chassis/v1/components/Braking`</text><text fill="#000000" font-family="sans-serif" font-size="13" lengthAdjust="spacing" textLength="177.2964" x="258.1323" y="1046.3091">powertrain._sovd._tcp.local</text><text fill="#000000" font-family="sans-serif" font-size="13" lengthAdjust="spacing" textLength="70.4399" x="451.958" y="1046.3091">powertrain</text><text fill="#000000" font-family="sans-serif" font-size="13" lengthAdjust="spacing" textLength="62.0229" x="539.0859" y="1046.3091">10.0.1.10</text><text fill="#000000" font-family="sans-serif" font-size="13" lengthAdjust="spacing" textLength="33.084" x="634.1865" y="1046.3091">7690</text><text fill="#000000" font-family="sans-serif" font-size="13" lengthAdjust="spacing" textLength="32.9888" x="675.5352" y="1046.3091">BMW</text><text fill="#000000" font-family="sans-serif" font-size="13" lengthAdjust="spacing" textLength="276.6626" x="798.0767" y="1046.3091">http://powertrain:7690/&lt;oem-specific&gt;/v1</text><text fill="#000000" font-family="sans-serif" font-size="13" lengthAdjust="spacing" textLength="441.27" x="1087.1362" y="1046.3091">`{base_uri}/components/Inverter`, `{base_uri}/area/Transmission`</text><line style="stroke:#000000;stroke-width:0.5;" x1="254" x2="1587.0205" y1="1003.9766" y2="1003.9766"/><line style="stroke:#000000;stroke-width:0.5;" x1="254" x2="1587.0205" y1="1019.1094" y2="1019.1094"/><line style="stroke:#000000;stroke-width:0.5;" x1="254" x2="1587.0205" y1="1034.2422" y2="1034.2422"/><line style="stroke:#000000;stroke-width:0.5;" x1="254" x2="1587.0205" y1="1049.375" y2="1049.375"/><line style="stroke:#000000;stroke-width:0.5;" x1="254" x2="254" y1="1003.9766" y2="1049.375"/><line style="stroke:#000000;stroke-width:0.5;" x1="447.8257" x2="447.8257" y1="1003.9766" y2="1049.375"/><line style="stroke:#000000;stroke-width:0.5;" x1="534.9536" x2="534.9536" y1="1003.9766" y2="1049.375"/><line style="stroke:#000000;stroke-width:0.5;" x1="630.0542" x2="630.0542" y1="1003.9766" y2="1049.375"/><line style="stroke:#000000;stroke-width:0.5;" x1="671.4028" x2="671.4028" y1="1003.9766" y2="1049.375"/><line style="stroke:#000000;stroke-width:0.5;" x1="793.9443" x2="793.9443" y1="1003.9766" y2="1049.375"/><line style="stroke:#000000;stroke-width:0.5;" x1="1083.0039" x2="1083.0039" y1="1003.9766" y2="1049.375"/><line style="stroke:#000000;stroke-width:0.5;" x1="1587.0205" x2="1587.0205" y1="1003.9766" y2="1049.375"/><rect fill="#EEEEEE" height="3" style="stroke:#EEEEEE;stroke-width:1;" width="1607.0205" x="0" y="1081.9414"/><line style="stroke:#000000;stroke-width:1;" x1="0" x2="1607.0205" y1="1081.9414" y2="1081.9414"/><line style="stroke:#000000;stroke-width:1;" x1="0" x2="1607.0205" y1="1084.9414" y2="1084.9414"/><rect fill="#EEEEEE" height="23.1328" style="stroke:#000000;stroke-width:2;" width="149.2622" x="728.8792" y="1071.375"/><text fill="#000000" font-family="sans-serif" font-size="13" font-weight="bold" lengthAdjust="spacing" textLength="130.7363" x="734.8792" y="1087.4419">Normal Operation</text><g class="message" data-participant-1="Client" data-participant-2="Gateway"><polygon fill="#181818" points="231.6528,1121.6406,241.6528,1125.6406,231.6528,1129.6406,235.6528,1125.6406" style="stroke:#181818;stroke-width:1;"/><line style="stroke:#181818;stroke-width:1;" x1="83.6226" x2="237.6528" y1="1125.6406" y2="1125.6406"/><text fill="#000000" font-family="sans-serif" font-size="13" lengthAdjust="spacing" textLength="136.0303" x="90.6226" y="1120.5747">GET /v1/chassis/data</text></g><g class="message" data-participant-1="Gateway" data-participant-2="A"><polygon fill="#181818" points="936.3979,1150.7734,946.3979,1154.7734,936.3979,1158.7734,940.3979,1154.7734" style="stroke:#181818;stroke-width:1;"/><line style="stroke:#181818;stroke-width:1;" x1="243.6528" x2="942.3979" y1="1154.7734" y2="1154.7734"/><text fill="#000000" font-family="sans-serif" font-size="13" lengthAdjust="spacing" textLength="215.0903" x="250.6528" y="1149.7075">Forward request (X-Forwarded-*)</text></g><path d="M248,1167.7734 L248,1192.7734 L586,1192.7734 L586,1177.7734 L576,1167.7734 L248,1167.7734" fill="#FEFFDD" style="stroke:#181818;stroke-width:0.5;"/><path d="M576,1167.7734 L576,1177.7734 L586,1177.7734 L576,1167.7734" fill="#FEFFDD" style="stroke:#181818;stroke-width:0.5;"/><text fill="#000000" font-family="sans-serif" font-size="13" lengthAdjust="spacing" textLength="317.4526" x="254" y="1184.8403">Look up for right sovd server in the routing table</text><g class="message" data-participant-1="A" data-participant-2="Gateway"><polygon fill="#181818" points="254.6528,1215.0391,244.6528,1219.0391,254.6528,1223.0391,250.6528,1219.0391" style="stroke:#181818;stroke-width:1;"/><line style="stroke:#181818;stroke-width:1;stroke-dasharray:2,2;" x1="248.6528" x2="947.3979" y1="1219.0391" y2="1219.0391"/><text fill="#000000" font-family="sans-serif" font-size="13" lengthAdjust="spacing" textLength="279.5889" x="260.6528" y="1213.9731">200 OK (hrefs, modfied with Forward-Host)</text></g><g class="message" data-participant-1="Gateway" data-participant-2="Client"><polygon fill="#181818" points="94.6226,1244.1719,84.6226,1248.1719,94.6226,1252.1719,90.6226,1248.1719" style="stroke:#181818;stroke-width:1;"/><line style="stroke:#181818;stroke-width:1;stroke-dasharray:2,2;" x1="88.6226" x2="242.6528" y1="1248.1719" y2="1248.1719"/><text fill="#000000" font-family="sans-serif" font-size="13" lengthAdjust="spacing" textLength="47.7026" x="100.6226" y="1243.106">200 OK</text></g><rect fill="#EEEEEE" height="3" style="stroke:#EEEEEE;stroke-width:1;" width="1607.0205" x="0" y="1276.7383"/><line style="stroke:#000000;stroke-width:1;" x1="0" x2="1607.0205" y1="1276.7383" y2="1276.7383"/><line style="stroke:#000000;stroke-width:1;" x1="0" x2="1607.0205" y1="1279.7383" y2="1279.7383"/><rect fill="#EEEEEE" height="23.1328" style="stroke:#000000;stroke-width:2;" width="135.3989" x="735.8108" y="1266.1719"/><text fill="#000000" font-family="sans-serif" font-size="13" font-weight="bold" lengthAdjust="spacing" textLength="116.873" x="741.8108" y="1282.2388">Upstream Down</text><g class="message" data-participant-1="A" data-participant-2="MDNS"><polygon fill="#181818" points="681.9805,1316.4375,671.9805,1320.4375,681.9805,1324.4375,677.9805,1320.4375" style="stroke:#181818;stroke-width:1;"/><line style="stroke:#181818;stroke-width:1;" x1="675.9805" x2="947.3979" y1="1320.4375" y2="1320.4375"/><text fill="#000000" font-family="sans-serif" font-size="13" lengthAdjust="spacing" textLength="163.5728" x="687.9805" y="1315.3716">Send "Goodbye" (TTL=0)</text></g><g class="message" data-participant-1="MDNS" data-participant-2="Gateway"><polygon fill="#181818" points="254.6528,1345.5703,244.6528,1349.5703,254.6528,1353.5703,250.6528,1349.5703" style="stroke:#181818;stroke-width:1;"/><line style="stroke:#181818;stroke-width:1;" x1="248.6528" x2="669.9805" y1="1349.5703" y2="1349.5703"/><text fill="#000000" font-family="sans-serif" font-size="13" lengthAdjust="spacing" textLength="196.9233" x="260.6528" y="1344.5044">Notify(ServiceDown, A@7690)</text></g><g class="message" data-participant-1="Gateway" data-participant-2="Gateway"><line style="stroke:#181818;stroke-width:1;" x1="243.6528" x2="285.6528" y1="1378.7031" y2="1378.7031"/><line style="stroke:#181818;stroke-width:1;" x1="285.6528" x2="285.6528" y1="1378.7031" y2="1391.7031"/><line style="stroke:#181818;stroke-width:1;" x1="244.6528" x2="285.6528" y1="1391.7031" y2="1391.7031"/><polygon fill="#181818" points="254.6528,1387.7031,244.6528,1391.7031,254.6528,1395.7031,250.6528,1391.7031" style="stroke:#181818;stroke-width:1;"/><text fill="#000000" font-family="sans-serif" font-size="13" lengthAdjust="spacing" textLength="243.166" x="250.6528" y="1373.6372">Remove SOVD Server from active list</text></g><path d="M248,1404.7031 L248,1444.7031 L403,1444.7031 L403,1414.7031 L393,1404.7031 L248,1404.7031" fill="#FEFFDD" style="stroke:#181818;stroke-width:0.5;"/><path d="M393,1404.7031 L393,1414.7031 L403,1414.7031 L393,1404.7031" fill="#FEFFDD" style="stroke:#181818;stroke-width:0.5;"/><text fill="#000000" font-family="sans-serif" font-size="13" lengthAdjust="spacing" textLength="134.5132" x="254" y="1421.77">Active upstream list:</text><text fill="#000000" font-family="sans-serif" font-size="13" lengthAdjust="spacing" textLength="110.0493" x="254" y="1436.9028">B@7690 (v1.0.0)</text><rect fill="#EEEEEE" height="3" style="stroke:#EEEEEE;stroke-width:1;" width="1607.0205" x="0" y="1470.5352"/><line style="stroke:#000000;stroke-width:1;" x1="0" x2="1607.0205" y1="1470.5352" y2="1470.5352"/><line style="stroke:#000000;stroke-width:1;" x1="0" x2="1607.0205" y1="1473.5352" y2="1473.5352"/><rect fill="#EEEEEE" height="23.1328" style="stroke:#000000;stroke-width:2;" width="191.0552" x="707.9827" y="1459.9688"/><text fill="#000000" font-family="sans-serif" font-size="13" font-weight="bold" lengthAdjust="spacing" textLength="172.5293" x="713.9827" y="1476.0356">New Upstream Appears</text><g class="message" data-participant-1="C" data-participant-2="MDNS"><polygon fill="#181818" points="681.9805,1510.2344,671.9805,1514.2344,681.9805,1518.2344,677.9805,1514.2344" style="stroke:#181818;stroke-width:1;"/><line style="stroke:#181818;stroke-width:1;" x1="675.9805" x2="1349.0244" y1="1514.2344" y2="1514.2344"/><text fill="#000000" font-family="sans-serif" font-size="13" lengthAdjust="spacing" textLength="253.4175" x="687.9805" y="1509.1685">Advertise _sovd._tcp.local (port=8082)</text></g><g class="message" data-participant-1="MDNS" data-participant-2="Gateway"><polygon fill="#181818" points="254.6528,1539.3672,244.6528,1543.3672,254.6528,1547.3672,250.6528,1543.3672" style="stroke:#181818;stroke-width:1;"/><line style="stroke:#181818;stroke-width:1;" x1="248.6528" x2="669.9805" y1="1543.3672" y2="1543.3672"/><text fill="#000000" font-family="sans-serif" font-size="13" lengthAdjust="spacing" textLength="178.0391" x="260.6528" y="1538.3013">Notify(ServiceUp, C@8082)</text></g><g class="message" data-participant-1="Gateway" data-participant-2="C"><polygon fill="#181818" points="1338.0244,1568.5,1348.0244,1572.5,1338.0244,1576.5,1342.0244,1572.5" style="stroke:#181818;stroke-width:1;"/><line style="stroke:#181818;stroke-width:1;" x1="243.6528" x2="1344.0244" y1="1572.5" y2="1572.5"/><text fill="#000000" font-family="sans-serif" font-size="13" lengthAdjust="spacing" textLength="241.96" x="250.6528" y="1567.4341">HTTP GET /{entity-path}/version-info</text></g><g class="message" data-participant-1="C" data-participant-2="Gateway"><polygon fill="#181818" points="254.6528,1597.6328,244.6528,1601.6328,254.6528,1605.6328,250.6528,1601.6328" style="stroke:#181818;stroke-width:1;"/><line style="stroke:#181818;stroke-width:1;stroke-dasharray:2,2;" x1="248.6528" x2="1349.0244" y1="1601.6328" y2="1601.6328"/><text fill="#000000" font-family="sans-serif" font-size="13" lengthAdjust="spacing" textLength="487.0239" x="260.6528" y="1596.5669">200 OK {"version":"1.0.0","base_uri":"http://cda:7690/","vendor_info": {}}</text></g><g class="message" data-participant-1="Gateway" data-participant-2="Gateway"><line style="stroke:#181818;stroke-width:1;" x1="243.6528" x2="285.6528" y1="1630.7656" y2="1630.7656"/><line style="stroke:#181818;stroke-width:1;" x1="285.6528" x2="285.6528" y1="1630.7656" y2="1643.7656"/><line style="stroke:#181818;stroke-width:1;" x1="244.6528" x2="285.6528" y1="1643.7656" y2="1643.7656"/><polygon fill="#181818" points="254.6528,1639.7656,244.6528,1643.7656,254.6528,1647.7656,250.6528,1643.7656" style="stroke:#181818;stroke-width:1;"/><text fill="#000000" font-family="sans-serif" font-size="13" lengthAdjust="spacing" textLength="413.3276" x="250.6528" y="1625.6997">Update C(version="1.0.0", base_uri) to active UpstreamInfo list</text></g><g class="message" data-participant-1="Gateway" data-participant-2="C"><polygon fill="#181818" points="1338.0244,1668.8984,1348.0244,1672.8984,1338.0244,1676.8984,1342.0244,1672.8984" style="stroke:#181818;stroke-width:1;"/><line style="stroke:#181818;stroke-width:1;" x1="243.6528" x2="1344.0244" y1="1672.8984" y2="1672.8984"/><text fill="#000000" font-family="sans-serif" font-size="13" lengthAdjust="spacing" textLength="270.0737" x="250.6528" y="1667.8325">HTTP GET /{entity-path}/entity-collection</text></g><g class="message" data-participant-1="C" data-participant-2="Gateway"><polygon fill="#181818" points="254.6528,1698.0313,244.6528,1702.0313,254.6528,1706.0313,250.6528,1702.0313" style="stroke:#181818;stroke-width:1;"/><line style="stroke:#181818;stroke-width:1;stroke-dasharray:2,2;" x1="248.6528" x2="1349.0244" y1="1702.0313" y2="1702.0313"/><text fill="#000000" font-family="sans-serif" font-size="13" lengthAdjust="spacing" textLength="483.7358" x="260.6528" y="1696.9653">200 OK {[{"name": "component","translation_id":"id","href":"base_uri"}]}</text></g><g class="message" data-participant-1="Gateway" data-participant-2="Gateway"><line style="stroke:#181818;stroke-width:1;" x1="243.6528" x2="285.6528" y1="1731.1641" y2="1731.1641"/><line style="stroke:#181818;stroke-width:1;" x1="285.6528" x2="285.6528" y1="1731.1641" y2="1744.1641"/><line style="stroke:#181818;stroke-width:1;" x1="244.6528" x2="285.6528" y1="1744.1641" y2="1744.1641"/><polygon fill="#181818" points="254.6528,1740.1641,244.6528,1744.1641,254.6528,1748.1641,250.6528,1744.1641" style="stroke:#181818;stroke-width:1;"/><text fill="#000000" font-family="sans-serif" font-size="13" lengthAdjust="spacing" textLength="377.9775" x="250.6528" y="1726.0981">Update C(EntityReference List) to active UpstreamInfo list</text></g><path d="M248,1757.1641 L248,1812.1641 L528,1812.1641 L528,1767.1641 L518,1757.1641 L248,1757.1641" fill="#FEFFDD" style="stroke:#181818;stroke-width:0.5;"/><path d="M518,1757.1641 L518,1767.1641 L528,1767.1641 L518,1757.1641" fill="#FEFFDD" style="stroke:#181818;stroke-width:0.5;"/><text fill="#000000" font-family="sans-serif" font-size="13" lengthAdjust="spacing" textLength="134.5132" x="254" y="1774.231">Active upstream list:</text><text fill="#000000" font-family="sans-serif" font-size="13" lengthAdjust="spacing" textLength="129.1113" x="254" y="1789.3638">CDA@7690 (v1.0.0)</text><text fill="#000000" font-family="sans-serif" font-size="13" lengthAdjust="spacing" textLength="259.4414" x="254" y="1804.4966">Powertrain SOVD Server@8082 (v1.0.0)</text><rect fill="#EEEEEE" height="3" style="stroke:#EEEEEE;stroke-width:1;" width="1607.0205" x="0" y="1838.1289"/><line style="stroke:#000000;stroke-width:1;" x1="0" x2="1607.0205" y1="1838.1289" y2="1838.1289"/><line style="stroke:#000000;stroke-width:1;" x1="0" x2="1607.0205" y1="1841.1289" y2="1841.1289"/><rect fill="#EEEEEE" height="23.1328" style="stroke:#000000;stroke-width:2;" width="232.7847" x="687.1179" y="1827.5625"/><text fill="#000000" font-family="sans-serif" font-size="13" font-weight="bold" lengthAdjust="spacing" textLength="214.2588" x="693.1179" y="1843.6294">Gateway Functional requests</text><path d="M248,1865.6953 L248,1890.6953 L1072,1890.6953 L1072,1875.6953 L1062,1865.6953 L248,1865.6953" fill="#FEFFDD" style="stroke:#181818;stroke-width:0.5;"/><path d="M1062,1865.6953 L1062,1875.6953 L1072,1875.6953 L1062,1865.6953" fill="#FEFFDD" style="stroke:#181818;stroke-width:0.5;"/><text fill="#000000" font-family="sans-serif" font-size="13" lengthAdjust="spacing" textLength="799.7222" x="254" y="1882.7622">In a functional view request, gateway shall query all known upstreams and consolidate the response to the offboard Client</text><!--SRC=[nLXjJ-Cu4FwUNp7AVMbFVUK3nrOKRHDOg8wNYXPkfTMgk8b3BT8uQxljeS9_lx7Zj6bf5xX3Uto0n9uPpuoVPsQ2OYgcqB-wFOPJekYSF3eE2HGNu9h5goWQSI92y6D64-K2aVRHIObGB60fIPGLjXQCK6vjJMfoVDc7QofJdeHK6BaBN5eNyiT4IYOpf_fKpAnaPqCirc8173Dodt296oWIabHPSSznscsZpmAAKZBWQEaHUcYUGhljE1se7fdpMwY8UuhXnb3oMLWRgY2jnJmWCPHIBbJxZ_rFZRBZlLl3qT9Qo-QZ1PTSiUYnP1sxIIlG-Mnb4wue27O_Li2ZPGPDqWPV1vYuW8kmvLoTN0nxWaRix_O2BuAfnsU79Y5eTSTnh9u-jDE2iy6W1wSd0wXRsMfArFYvZjvBnfCgIoAkCr5qSQ_HWAi_OU5Q8RVbDckDMiEjk2DCtd0g62wDbKfRzNgGNLTjd0Oj7KSTfMRe3XT3RTjjmUBvkUZKyfYRDCH7w9JiCUty5CXFAOFYW71aCuhIKWbA9bqq2Z6JwgsHsfU0np55KppP5UwtXPkG2KMFtO1F4ACQy1LN2PB8c6ZD8GinSFnLSSTu0VYypCVpzrU2F35k-4ilu1nZU2N0xO3uxHkI1pLAntGqlQyW7z7LydSddOu0JKm3jMvhuG3-w5sMI4MIW0vrd2teAy4IDB3-Kwy3hTtNmCt1LTj4kBiqE4RY_SpMki53JUbgHkdg6QeUhIoHC1HKoXPSfJexXzsqWoj7bKrBACJZ6GsXsrlgQhwrODhStthyXXSQeqjD2rIymA6SHiYeRO4i_T-5-CCNPWg1MN3_D4Eh8sRDbMQEhRSbzntErOkdc4jc53D_IuF3xAIZRPZOf964gOWpeAxLdpTKFCzMl09Xl3UMAk-_bAgG_BiIvNr4YVBUKwAyNr-Yl0yiKPrCVchbZMpBANHq0m0epKmwouv_tDbOAG1g-n5FqBNLR2kZdk3CrgRihTk3JbPYp6iFImR-kJKeW9lhBlGDDt3Dq_E1NjbkDakIIGqyeHSvuLwC0R3SonIRd_PgpVs3MhFMRE2h2VS9BgW8Q4Zbwe1r8biISpgfofG6B6A1vg-LlLlaj_jSNm92rlkAKitZkmhShPj3rQAW9yY3bZEHf7oE8uqWBDaI31JtTJHuIraePiz6urtyjP4kU_nATsT0EwFf9dhKea97Kv0WYApwG2D_mgGcfuu2xpD33Sv-brnCqFMhb0f33JFqPSFh6luD8NLUR8gG3MHZjlZ2nLnFmOB-c5Ay-DBNgbsYOVNtyWw8ddF-W1o0226MRUgqWZGCm6OCQenQVAhm2a2HKKnNiDy-evGqfsK59ZoC63R1ELFZt3dJKGir5TMpO7DjavISmd3Cvydc6DpNnxkdd8UZH-f2QJ0uRoCNNwdesj9gYjrMOQxf18VluaGFaU2JlAoylv9uEwk5ldSwNuNPILDAX3IHhdq_z5PetlpIy1t_7OF-GUDWh_oMhkT_paGB6VBVsFNy_wFh-H_HzVptT3t_rtSzttQzQnfHGNKt-U2czxArRKUU0SSEHEV-Vvac9b68FLk93B2tkzDDW42qqfWnv8LLgy2zDId798u15_7JM3yz9Bekv3588EX7WCCUZvd9bobPvWiU6O59qkzy_Py4i7J-7m00]--></g></svg>