<svg xmlns="http://www.w3.org/2000/svg" xmlns:xlink="http://www.w3.org/1999/xlink" contentStyleType="text/css" data-diagram-type="SEQUENCE" height="2032px" preserveAspectRatio="none" style="width:1654px;height:2032px;background:#FFFFFF;" version="1.1" viewBox="0 0 1654 2032" width="1654px" zoomAndPan="magnify"><title>SOVD Gateway</title><defs/><g><text fill="#000000" font-family="sans-serif" font-size="14" font-weight="bold" lengthAdjust="spacing" textLength="117.9473" x="764.1016" y="27.9951">SOVD Gateway</text><g><title>SOVD Offboard Client</title><rect fill="#000000" fill-opacity="0.00000" height="1832.6328" width="8" x="79.6226" y="118.5938"/><line style="stroke:#181818;stroke-width:0.5;stroke-dasharray:5,5;" x1="83" x2="83" y1="118.5938" y2="1951.2266"/></g><g><title>SOVD Gateway</title><rect fill="#000000" fill-opacity="0.00000" height="1832.6328" width="8" x="239.6528" y="118.5938"/><line style="stroke:#181818;stroke-width:0.5;stroke-dasharray:5,5;" x1="243.3735" x2="243.3735" y1="118.5938" y2="1951.2266"/></g><g><title>mDNS Responder</title><rect fill="#000000" fill-opacity="0.00000" height="1832.6328" width="8" x="679.3394" y="118.5938"/><line style="stroke:#181818;stroke-width:0.5;stroke-dasharray:5,5;" x1="682.6177" x2="682.6177" y1="118.5938" y2="1951.2266"/></g><g><title>Chassis SOVD Server</title><rect fill="#000000" fill-opacity="0.00000" height="1832.6328" width="8" x="956.7568" y="118.5938"/><line style="stroke:#181818;stroke-width:0.5;stroke-dasharray:5,5;" x1="960.7202" x2="960.7202" y1="118.5938" y2="1951.2266"/></g><g><title>Classic Diagnostics Adapter</title><rect fill="#000000" fill-opacity="0.00000" height="1832.6328" width="8" x="1151.9663" y="118.5938"/><line style="stroke:#181818;stroke-width:0.5;stroke-dasharray:5,5;" x1="1155.7935" x2="1155.7935" y1="118.5938" y2="1951.2266"/></g><g><title>Powertrain SOVD Server</title><rect fill="#000000" fill-opacity="0.00000" height="1832.6328" width="8" x="1358.3833" y="118.5938"/><line style="stroke:#181818;stroke-width:0.5;stroke-dasharray:5,5;" x1="1362.1392" x2="1362.1392" y1="118.5938" y2="1951.2266"/></g><g class="participant participant-head" data-participant="Client"><text fill="#000000" font-family="sans-serif" font-size="14" lengthAdjust="spacing" textLength="151.2451" x="5" y="115.292">SOVD Offboard Client</text><ellipse cx="83.6226" cy="50.7969" fill="#E2E2F0" rx="8" ry="8" style="stroke:#181818;stroke-width:0.5;"/><path d="M83.6226,58.7969 L83.6226,85.7969 M70.6226,66.7969 L96.6226,66.7969 M83.6226,85.7969 L70.6226,100.7969 M83.6226,85.7969 L96.6226,100.7969" fill="none" style="stroke:#181818;stroke-width:0.5;"/></g><g class="participant participant-tail" data-participant="Client"><text fill="#000000" font-family="sans-serif" font-size="14" lengthAdjust="spacing" textLength="151.2451" x="5" y="1963.2217">SOVD Offboard Client</text><ellipse cx="83.6226" cy="1975.0234" fill="#E2E2F0" rx="8" ry="8" style="stroke:#181818;stroke-width:0.5;"/><path d="M83.6226,1983.0234 L83.6226,2010.0234 M70.6226,1991.0234 L96.6226,1991.0234 M83.6226,2010.0234 L70.6226,2025.0234 M83.6226,2010.0234 L96.6226,2025.0234" fill="none" style="stroke:#181818;stroke-width:0.5;"/></g><g class="participant participant-head" data-participant="Gateway"><rect fill="#E2E2F0" height="30.2969" rx="2.5" ry="2.5" style="stroke:#181818;stroke-width:0.5;" width="120.5586" x="183.3735" y="87.2969"/><text fill="#000000" font-family="sans-serif" font-size="14" lengthAdjust="spacing" textLength="106.5586" x="190.3735" y="107.292">SOVD Gateway</text></g><g class="participant participant-tail" data-participant="Gateway"><rect fill="#E2E2F0" height="30.2969" rx="2.5" ry="2.5" style="stroke:#181818;stroke-width:0.5;" width="120.5586" x="183.3735" y="1950.2266"/><text fill="#000000" font-family="sans-serif" font-size="14" lengthAdjust="spacing" textLength="106.5586" x="190.3735" y="1970.2217">SOVD Gateway</text></g><g class="participant participant-head" data-participant="MDNS"><rect fill="#E2E2F0" height="30.2969" rx="2.5" ry="2.5" style="stroke:#181818;stroke-width:0.5;" width="137.4434" x="614.6177" y="87.2969"/><text fill="#000000" font-family="sans-serif" font-size="14" lengthAdjust="spacing" textLength="123.4434" x="621.6177" y="107.292">mDNS Responder</text></g><g class="participant participant-tail" data-participant="MDNS"><rect fill="#E2E2F0" height="30.2969" rx="2.5" ry="2.5" style="stroke:#181818;stroke-width:0.5;" width="137.4434" x="614.6177" y="1950.2266"/><text fill="#000000" font-family="sans-serif" font-size="14" lengthAdjust="spacing" textLength="123.4434" x="621.6177" y="1970.2217">mDNS Responder</text></g><g class="participant participant-head" data-participant="A"><rect fill="#E2E2F0" height="30.2969" rx="2.5" ry="2.5" style="stroke:#181818;stroke-width:0.5;" width="162.0732" x="879.7202" y="87.2969"/><text fill="#000000" font-family="sans-serif" font-size="14" lengthAdjust="spacing" textLength="148.0732" x="886.7202" y="107.292">Chassis SOVD Server</text></g><g class="participant participant-tail" data-participant="A"><rect fill="#E2E2F0" height="30.2969" rx="2.5" ry="2.5" style="stroke:#181818;stroke-width:0.5;" width="162.0732" x="879.7202" y="1950.2266"/><text fill="#000000" font-family="sans-serif" font-size="14" lengthAdjust="spacing" textLength="148.0732" x="886.7202" y="1970.2217">Chassis SOVD Server</text></g><g class="participant participant-head" data-participant="B"><rect fill="#E2E2F0" height="30.2969" rx="2.5" ry="2.5" style="stroke:#181818;stroke-width:0.5;" width="208.3457" x="1051.7935" y="87.2969"/><text fill="#000000" font-family="sans-serif" font-size="14" lengthAdjust="spacing" textLength="194.3457" x="1058.7935" y="107.292">Classic Diagnostics Adapter</text></g><g class="participant participant-tail" data-participant="B"><rect fill="#E2E2F0" height="30.2969" rx="2.5" ry="2.5" style="stroke:#181818;stroke-width:0.5;" width="208.3457" x="1051.7935" y="1950.2266"/><text fill="#000000" font-family="sans-serif" font-size="14" lengthAdjust="spacing" textLength="194.3457" x="1058.7935" y="1970.2217">Classic Diagnostics Adapter</text></g><g class="participant participant-head" data-participant="C"><rect fill="#E2E2F0" height="30.2969" rx="2.5" ry="2.5" style="stroke:#181818;stroke-width:0.5;" width="184.4883" x="1270.1392" y="87.2969"/><text fill="#000000" font-family="sans-serif" font-size="14" lengthAdjust="spacing" textLength="170.4883" x="1277.1392" y="107.292">Powertrain SOVD Server</text></g><g class="participant participant-tail" data-participant="C"><rect fill="#E2E2F0" height="30.2969" rx="2.5" ry="2.5" style="stroke:#181818;stroke-width:0.5;" width="184.4883" x="1270.1392" y="1950.2266"/><text fill="#000000" font-family="sans-serif" font-size="14" lengthAdjust="spacing" textLength="170.4883" x="1277.1392" y="1970.2217">Powertrain SOVD Server</text></g><rect fill="#EEEEEE" height="3" style="stroke:#EEEEEE;stroke-width:1;" width="1647.1504" x="0" y="149.1602"/><line style="stroke:#000000;stroke-width:1;" x1="0" x2="1647.1504" y1="149.1602" y2="149.1602"/><line style="stroke:#000000;stroke-width:1;" x1="0" x2="1647.1504" y1="152.1602" y2="152.1602"/><rect fill="#EEEEEE" height="23.1328" style="stroke:#000000;stroke-width:2;" width="197.5298" x="724.8103" y="138.5938"/><text fill="#000000" font-family="sans-serif" font-size="13" font-weight="bold" lengthAdjust="spacing" textLength="179.0039" x="730.8103" y="154.6606">Service Discovery Phase</text><g class="message" data-participant-1="A" data-participant-2="MDNS"><polygon fill="#181818" points="694.3394,188.8594,684.3394,192.8594,694.3394,196.8594,690.3394,192.8594" style="stroke:#181818;stroke-width:1;"/><line style="stroke:#181818;stroke-width:1;" x1="688.3394" x2="959.7568" y1="192.8594" y2="192.8594"/><text fill="#000000" font-family="sans-serif" font-size="13" lengthAdjust="spacing" textLength="253.4175" x="700.3394" y="187.7935">Advertise _sovd._tcp.local (port=7690)</text></g><g class="message" data-participant-1="B" data-participant-2="MDNS"><polygon fill="#181818" points="694.3394,217.9922,684.3394,221.9922,694.3394,225.9922,690.3394,221.9922" style="stroke:#181818;stroke-width:1;"/><line style="stroke:#181818;stroke-width:1;" x1="688.3394" x2="1154.9663" y1="221.9922" y2="221.9922"/><text fill="#000000" font-family="sans-serif" font-size="13" lengthAdjust="spacing" textLength="253.4175" x="700.3394" y="216.9263">Advertise _sovd._tcp.local (port=7690)</text></g><g class="message" data-participant-1="MDNS" data-participant-2="Gateway"><polygon fill="#181818" points="254.6528,247.125,244.6528,251.125,254.6528,255.125,250.6528,251.125" style="stroke:#181818;stroke-width:1;"/><line style="stroke:#181818;stroke-width:1;" x1="248.6528" x2="682.3394" y1="251.125" y2="251.125"/><text fill="#000000" font-family="sans-serif" font-size="13" lengthAdjust="spacing" textLength="177.855" x="260.6528" y="246.0591">Notify(ServiceUp, A@7690)</text></g><path d="M248,264.125 L248,304.125 L407,304.125 L407,274.125 L397,264.125 L248,264.125" fill="#FEFFDD" style="stroke:#181818;stroke-width:0.5;"/><path d="M397,264.125 L397,274.125 L407,274.125 L397,264.125" fill="#FEFFDD" style="stroke:#181818;stroke-width:0.5;"/><text fill="#000000" font-family="sans-serif" font-size="13" lengthAdjust="spacing" textLength="123.811" x="254" y="281.1919">mDNS TXT Record:</text><text fill="#000000" font-family="sans-serif" font-size="13" lengthAdjust="spacing" textLength="138.3979" x="254" y="296.3247">OEM_Prefix={entity}</text><path d="M248,314.3906 L248,490.3906 L848,490.3906 L848,324.3906 L838,314.3906 L248,314.3906" fill="#FEFFDD" style="stroke:#181818;stroke-width:0.5;"/><path d="M838,314.3906 L838,324.3906 L848,324.3906 L838,314.3906" fill="#FEFFDD" style="stroke:#181818;stroke-width:0.5;"/><text fill="#000000" font-family="sans-serif" font-size="13" lengthAdjust="spacing" textLength="12.4033" x="254" y="331.4575">1.</text><text fill="#000000" font-family="sans-serif" font-size="13" lengthAdjust="spacing" textLength="149.0811" x="270.5356" y="331.4575">[derive(Debug, Clone)]</text><text fill="#000000" font-family="sans-serif" font-size="13" lengthAdjust="spacing" textLength="171.3232" x="254" y="346.5903">pub struct UpstreamInfo {</text><text fill="#000000" font-family="sans-serif" font-size="13" lengthAdjust="spacing" textLength="455.3745" x="270.5293" y="361.7231">pub instance_name: String,               // e.g. "{entity}._sovd._tcp.local"</text><text fill="#000000" font-family="sans-serif" font-size="13" lengthAdjust="spacing" textLength="422.1763" x="270.5293" y="376.856">pub hostname: String,                    // e.g. "&lt;SOVD-Server-Host&gt;"</text><text fill="#000000" font-family="sans-serif" font-size="13" lengthAdjust="spacing" textLength="338.9204" x="270.5293" y="391.9888">pub address: Option&lt;IpAddr&gt;,             // resolved IP</text><text fill="#000000" font-family="sans-serif" font-size="13" lengthAdjust="spacing" textLength="279.1445" x="270.5293" y="407.1216">pub port: u16,                           // e.g. 7690</text><text fill="#000000" font-family="sans-serif" font-size="13" lengthAdjust="spacing" textLength="191.4644" x="270.5293" y="422.2544">pub vendor_uri_suffix: String,</text><text fill="#000000" font-family="sans-serif" font-size="13" font-style="italic" lengthAdjust="spacing" textLength="65.6919" x="511.5815" y="422.2544">e.g. "http:</text><text fill="#000000" font-family="sans-serif" font-size="13" lengthAdjust="spacing" textLength="255.8105" x="577.2734" y="422.2544">chassis.hpc:7690/&lt;vendor_uri_suffix&gt;"</text><text fill="#000000" font-family="sans-serif" font-size="13" lengthAdjust="spacing" textLength="147.3608" x="270.5293" y="437.3872">pub base_path: String,</text><text fill="#000000" font-family="sans-serif" font-size="13" font-style="italic" lengthAdjust="spacing" textLength="65.6919" x="500.5366" y="437.3872">e.g. "http:</text><text fill="#000000" font-family="sans-serif" font-size="13" lengthAdjust="spacing" textLength="85.4141" x="566.2285" y="437.3872">chassis.hpc/"</text><text fill="#000000" font-family="sans-serif" font-size="13" lengthAdjust="spacing" textLength="284.1719" x="270.5293" y="452.52">pub version: String,                     // e.g. "v1"</text><text fill="#000000" font-family="sans-serif" font-size="13" lengthAdjust="spacing" textLength="405.5708" x="270.5293" y="467.6528">pub entities: Vec&lt;String&gt;,               // entity-collections url list</text><text fill="#000000" font-family="sans-serif" font-size="13" lengthAdjust="spacing" textLength="8.271" x="254" y="482.7856">}</text><g class="message" data-participant-1="Gateway" data-participant-2="A"><polygon fill="#181818" points="948.7568,512.9844,958.7568,516.9844,948.7568,520.9844,952.7568,516.9844" style="stroke:#181818;stroke-width:1;"/><line style="stroke:#181818;stroke-width:1;" x1="243.6528" x2="954.7568" y1="516.9844" y2="516.9844"/><text fill="#000000" font-family="sans-serif" font-size="13" lengthAdjust="spacing" textLength="241.96" x="250.6528" y="511.9185">HTTP GET /{entity-path}/version-info</text></g><g class="message" data-participant-1="A" data-participant-2="Gateway"><polygon fill="#181818" points="254.6528,542.1172,244.6528,546.1172,254.6528,550.1172,250.6528,546.1172" style="stroke:#181818;stroke-width:1;"/><line style="stroke:#181818;stroke-width:1;stroke-dasharray:2,2;" x1="248.6528" x2="959.7568" y1="546.1172" y2="546.1172"/><text fill="#000000" font-family="sans-serif" font-size="13" lengthAdjust="spacing" textLength="538.7129" x="260.6528" y="541.0513">200 OK {"version":"1.0.0","base_uri":"http://chassis.hpc:7690/","vendor_info": {}}</text></g><g class="message" data-participant-1="Gateway" data-participant-2="Gateway"><line style="stroke:#181818;stroke-width:1;" x1="243.6528" x2="285.6528" y1="575.25" y2="575.25"/><line style="stroke:#181818;stroke-width:1;" x1="285.6528" x2="285.6528" y1="575.25" y2="588.25"/><line style="stroke:#181818;stroke-width:1;" x1="244.6528" x2="285.6528" y1="588.25" y2="588.25"/><polygon fill="#181818" points="254.6528,584.25,244.6528,588.25,254.6528,592.25,250.6528,588.25" style="stroke:#181818;stroke-width:1;"/><text fill="#000000" font-family="sans-serif" font-size="13" lengthAdjust="spacing" textLength="425.5024" x="250.6528" y="570.1841">Update A(version="1.0.0", base_path) to active UpstreamInfo list</text></g><g class="message" data-participant-1="Gateway" data-participant-2="A"><polygon fill="#181818" points="948.7568,613.3828,958.7568,617.3828,948.7568,621.3828,952.7568,617.3828" style="stroke:#181818;stroke-width:1;"/><line style="stroke:#181818;stroke-width:1;" x1="243.6528" x2="954.7568" y1="617.3828" y2="617.3828"/><text fill="#000000" font-family="sans-serif" font-size="13" lengthAdjust="spacing" textLength="270.0737" x="250.6528" y="612.3169">HTTP GET /{entity-path}/entity-collection</text></g><g class="message" data-participant-1="A" data-participant-2="Gateway"><polygon fill="#181818" points="254.6528,642.5156,244.6528,646.5156,254.6528,650.5156,250.6528,646.5156" style="stroke:#181818;stroke-width:1;"/><line style="stroke:#181818;stroke-width:1;stroke-dasharray:2,2;" x1="248.6528" x2="959.7568" y1="646.5156" y2="646.5156"/><text fill="#000000" font-family="sans-serif" font-size="13" lengthAdjust="spacing" textLength="483.7358" x="260.6528" y="641.4497">200 OK {[{"name": "component","translation_id":"id","href":"base_uri"}]}</text></g><g class="message" data-participant-1="Gateway" data-participant-2="Gateway"><line style="stroke:#181818;stroke-width:1;" x1="243.6528" x2="285.6528" y1="675.6484" y2="675.6484"/><line style="stroke:#181818;stroke-width:1;" x1="285.6528" x2="285.6528" y1="675.6484" y2="688.6484"/><line style="stroke:#181818;stroke-width:1;" x1="244.6528" x2="285.6528" y1="688.6484" y2="688.6484"/><polygon fill="#181818" points="254.6528,684.6484,244.6528,688.6484,254.6528,692.6484,250.6528,688.6484" style="stroke:#181818;stroke-width:1;"/><text fill="#000000" font-family="sans-serif" font-size="13" lengthAdjust="spacing" textLength="375.7622" x="250.6528" y="670.5825">Update A(EntityCollection List) to active UpstreamInfo list</text></g><g class="message" data-participant-1="MDNS" data-participant-2="Gateway"><polygon fill="#181818" points="254.6528,713.7813,244.6528,717.7813,254.6528,721.7813,250.6528,717.7813" style="stroke:#181818;stroke-width:1;"/><line style="stroke:#181818;stroke-width:1;" x1="248.6528" x2="682.3394" y1="717.7813" y2="717.7813"/><text fill="#000000" font-family="sans-serif" font-size="13" lengthAdjust="spacing" textLength="177.8804" x="260.6528" y="712.7153">Notify(ServiceUp, B@7690)</text></g><g class="message" data-participant-1="Gateway" data-participant-2="B"><polygon fill="#181818" points="1143.9663,742.9141,1153.9663,746.9141,1143.9663,750.9141,1147.9663,746.9141" style="stroke:#181818;stroke-width:1;"/><line style="stroke:#181818;stroke-width:1;" x1="243.6528" x2="1149.9663" y1="746.9141" y2="746.9141"/><text fill="#000000" font-family="sans-serif" font-size="13" lengthAdjust="spacing" textLength="241.96" x="250.6528" y="741.8481">HTTP GET /{entity-path}/version-info</text></g><g class="message" data-participant-1="B" data-participant-2="Gateway"><polygon fill="#181818" points="254.6528,772.0469,244.6528,776.0469,254.6528,780.0469,250.6528,776.0469" style="stroke:#181818;stroke-width:1;"/><line style="stroke:#181818;stroke-width:1;stroke-dasharray:2,2;" x1="248.6528" x2="1154.9663" y1="776.0469" y2="776.0469"/><text fill="#000000" font-family="sans-serif" font-size="13" lengthAdjust="spacing" textLength="487.0239" x="260.6528" y="770.981">200 OK {"version":"1.0.0","base_uri":"http://cda:7690/","vendor_info": {}}</text></g><g class="message" data-participant-1="Gateway" data-participant-2="Gateway"><line style="stroke:#181818;stroke-width:1;" x1="243.6528" x2="285.6528" y1="805.1797" y2="805.1797"/><line style="stroke:#181818;stroke-width:1;" x1="285.6528" x2="285.6528" y1="805.1797" y2="818.1797"/><line style="stroke:#181818;stroke-width:1;" x1="244.6528" x2="285.6528" y1="818.1797" y2="818.1797"/><polygon fill="#181818" points="254.6528,814.1797,244.6528,818.1797,254.6528,822.1797,250.6528,818.1797" style="stroke:#181818;stroke-width:1;"/><text fill="#000000" font-family="sans-serif" font-size="13" lengthAdjust="spacing" textLength="425.5278" x="250.6528" y="800.1138">Update B(version="1.0.0", base_path) to active UpstreamInfo list</text></g><g class="message" data-participant-1="Gateway" data-participant-2="B"><polygon fill="#181818" points="1143.9663,843.3125,1153.9663,847.3125,1143.9663,851.3125,1147.9663,847.3125" style="stroke:#181818;stroke-width:1;"/><line style="stroke:#181818;stroke-width:1;" x1="243.6528" x2="1149.9663" y1="847.3125" y2="847.3125"/><text fill="#000000" font-family="sans-serif" font-size="13" lengthAdjust="spacing" textLength="270.0737" x="250.6528" y="842.2466">HTTP GET /{entity-path}/entity-collection</text></g><g class="message" data-participant-1="B" data-participant-2="Gateway"><polygon fill="#181818" points="254.6528,872.4453,244.6528,876.4453,254.6528,880.4453,250.6528,876.4453" style="stroke:#181818;stroke-width:1;"/><line style="stroke:#181818;stroke-width:1;stroke-dasharray:2,2;" x1="248.6528" x2="1154.9663" y1="876.4453" y2="876.4453"/><text fill="#000000" font-family="sans-serif" font-size="13" lengthAdjust="spacing" textLength="483.7358" x="260.6528" y="871.3794">200 OK {[{"name": "component","translation_id":"id","href":"base_uri"}]}</text></g><g class="message" data-participant-1="Gateway" data-participant-2="Gateway"><line style="stroke:#181818;stroke-width:1;" x1="243.6528" x2="285.6528" y1="905.5781" y2="905.5781"/><line style="stroke:#181818;stroke-width:1;" x1="285.6528" x2="285.6528" y1="905.5781" y2="918.5781"/><line style="stroke:#181818;stroke-width:1;" x1="244.6528" x2="285.6528" y1="918.5781" y2="918.5781"/><polygon fill="#181818" points="254.6528,914.5781,244.6528,918.5781,254.6528,922.5781,250.6528,918.5781" style="stroke:#181818;stroke-width:1;"/><text fill="#000000" font-family="sans-serif" font-size="13" lengthAdjust="spacing" textLength="375.7876" x="250.6528" y="900.5122">Update B(EntityCollection List) to active UpstreamInfo list</text></g><path d="M248,931.5781 L248,986.5781 L454,986.5781 L454,941.5781 L444,931.5781 L248,931.5781" fill="#FEFFDD" style="stroke:#181818;stroke-width:0.5;"/><path d="M444,931.5781 L444,941.5781 L454,941.5781 L444,931.5781" fill="#FEFFDD" style="stroke:#181818;stroke-width:0.5;"/><text fill="#000000" font-family="sans-serif" font-size="13" lengthAdjust="spacing" textLength="134.5132" x="254" y="948.645">Active upstream list:</text><text fill="#000000" font-family="sans-serif" font-size="13" lengthAdjust="spacing" textLength="185.2817" x="254" y="963.7778">SOVD Server@7690 (v1.0.0)</text><text fill="#000000" font-family="sans-serif" font-size="13" lengthAdjust="spacing" textLength="129.1113" x="254" y="978.9106">CDA@7690 (v1.0.0)</text><path d="M248,996.9766 L248,1100.9766 L1642,1100.9766 L1642,1006.9766 L1632,996.9766 L248,996.9766" fill="#FEFFDD" style="stroke:#181818;stroke-width:0.5;"/><path d="M1632,996.9766 L1632,1006.9766 L1642,1006.9766 L1632,996.9766" fill="#FEFFDD" style="stroke:#181818;stroke-width:0.5;"/><text fill="#000000" font-family="sans-serif" font-size="13" lengthAdjust="spacing" textLength="123.354" x="254" y="1014.0435">Routing Table e.g.:</text><text fill="#000000" font-family="sans-serif" font-size="13" lengthAdjust="spacing" textLength="271.5146" x="254" y="1029.1763">note "SOVD Gateway Routing Table" as N</text><text fill="#000000" font-family="sans-serif" font-size="13" lengthAdjust="spacing" textLength="55.2944" x="258.1323" y="1046.3091">Instance</text><text fill="#000000" font-family="sans-serif" font-size="13" lengthAdjust="spacing" textLength="66.4663" x="451.958" y="1046.3091">Hostname</text><text fill="#000000" font-family="sans-serif" font-size="13" lengthAdjust="spacing" textLength="68.0913" x="539.0859" y="1046.3091">IP Address</text><text fill="#000000" font-family="sans-serif" font-size="13" lengthAdjust="spacing" textLength="26.2349" x="634.1865" y="1046.3091">Port</text><text fill="#000000" font-family="sans-serif" font-size="13" lengthAdjust="spacing" textLength="114.2769" x="675.5352" y="1046.3091">Vendor URI Suffix</text><text fill="#000000" font-family="sans-serif" font-size="13" lengthAdjust="spacing" textLength="64.9302" x="798.0767" y="1046.3091">Base Path</text><text fill="#000000" font-family="sans-serif" font-size="13" lengthAdjust="spacing" textLength="64.8096" x="1114.9072" y="1046.3091">Entity List</text><text fill="#000000" font-family="sans-serif" font-size="13" lengthAdjust="spacing" textLength="154.1401" x="258.1323" y="1061.4419">chassis._sovd._tcp.local</text><text fill="#000000" font-family="sans-serif" font-size="13" lengthAdjust="spacing" textLength="47.2837" x="451.958" y="1061.4419">chassis</text><text fill="#000000" font-family="sans-serif" font-size="13" lengthAdjust="spacing" textLength="86.8359" x="539.0859" y="1061.4419">192.168.1.10</text><text fill="#000000" font-family="sans-serif" font-size="13" lengthAdjust="spacing" textLength="33.084" x="634.1865" y="1061.4419">7690</text><text fill="#000000" font-family="sans-serif" font-size="13" lengthAdjust="spacing" textLength="62.7275" x="675.5352" y="1061.4419">Mercedes</text><text fill="#000000" font-family="sans-serif" font-size="13" lengthAdjust="spacing" textLength="281.2773" x="798.0767" y="1061.4419">http://chassis.hpc:7690/&lt;oem-specific&gt;/v1</text><text fill="#000000" font-family="sans-serif" font-size="13" lengthAdjust="spacing" textLength="508.1108" x="1114.9072" y="1061.4419">`{base_path}/components/Steering`, `http://chassis/v1/components/Braking`</text><text fill="#000000" font-family="sans-serif" font-size="13" lengthAdjust="spacing" textLength="177.2964" x="258.1323" y="1076.5747">powertrain._sovd._tcp.local</text><text fill="#000000" font-family="sans-serif" font-size="13" lengthAdjust="spacing" textLength="70.4399" x="451.958" y="1076.5747">powertrain</text><text fill="#000000" font-family="sans-serif" font-size="13" lengthAdjust="spacing" textLength="62.0229" x="539.0859" y="1076.5747">10.0.1.10</text><text fill="#000000" font-family="sans-serif" font-size="13" lengthAdjust="spacing" textLength="33.084" x="634.1865" y="1076.5747">7690</text><text fill="#000000" font-family="sans-serif" font-size="13" lengthAdjust="spacing" textLength="32.9888" x="675.5352" y="1076.5747">BMW</text><text fill="#000000" font-family="sans-serif" font-size="13" lengthAdjust="spacing" textLength="304.4336" x="798.0767" y="1076.5747">http://powertrain.hpc:7690/&lt;oem-specific&gt;/v1</text><text fill="#000000" font-family="sans-serif" font-size="13" lengthAdjust="spacing" textLength="465.9878" x="1114.9072" y="1076.5747">`{base_path}/components/Inverter`, `{base_path}/area/Transmission`</text><line style="stroke:#000000;stroke-width:0.5;" x1="254" x2="1627.1504" y1="1034.2422" y2="1034.2422"/><line style="stroke:#000000;stroke-width:0.5;" x1="254" x2="1627.1504" y1="1049.375" y2="1049.375"/><line style="stroke:#000000;stroke-width:0.5;" x1="254" x2="1627.1504" y1="1064.5078" y2="1064.5078"/><line style="stroke:#000000;stroke-width:0.5;" x1="254" x2="1627.1504" y1="1079.6406" y2="1079.6406"/><line style="stroke:#000000;stroke-width:0.5;" x1="254" x2="254" y1="1034.2422" y2="1079.6406"/><line style="stroke:#000000;stroke-width:0.5;" x1="447.8257" x2="447.8257" y1="1034.2422" y2="1079.6406"/><line style="stroke:#000000;stroke-width:0.5;" x1="534.9536" x2="534.9536" y1="1034.2422" y2="1079.6406"/><line style="stroke:#000000;stroke-width:0.5;" x1="630.0542" x2="630.0542" y1="1034.2422" y2="1079.6406"/><line style="stroke:#000000;stroke-width:0.5;" x1="671.4028" x2="671.4028" y1="1034.2422" y2="1079.6406"/><line style="stroke:#000000;stroke-width:0.5;" x1="793.9443" x2="793.9443" y1="1034.2422" y2="1079.6406"/><line style="stroke:#000000;stroke-width:0.5;" x1="1110.7749" x2="1110.7749" y1="1034.2422" y2="1079.6406"/><line style="stroke:#000000;stroke-width:0.5;" x1="1627.1504" x2="1627.1504" y1="1034.2422" y2="1079.6406"/><text fill="#000000" font-family="sans-serif" font-size="13" lengthAdjust="spacing" textLength="24.4893" x="254" y="1093.7075">end</text><rect fill="#EEEEEE" height="3" style="stroke:#EEEEEE;stroke-width:1;" width="1647.1504" x="0" y="1127.3398"/><line style="stroke:#000000;stroke-width:1;" x1="0" x2="1647.1504" y1="1127.3398" y2="1127.3398"/><line style="stroke:#000000;stroke-width:1;" x1="0" x2="1647.1504" y1="1130.3398" y2="1130.3398"/><rect fill="#EEEEEE" height="23.1328" style="stroke:#000000;stroke-width:2;" width="149.2622" x="748.9441" y="1116.7734"/><text fill="#000000" font-family="sans-serif" font-size="13" font-weight="bold" lengthAdjust="spacing" textLength="130.7363" x="754.9441" y="1132.8403">Normal Operation</text><g class="message" data-participant-1="Client" data-participant-2="Gateway"><polygon fill="#181818" points="231.6528,1167.0391,241.6528,1171.0391,231.6528,1175.0391,235.6528,1171.0391" style="stroke:#181818;stroke-width:1;"/><line style="stroke:#181818;stroke-width:1;" x1="83.6226" x2="237.6528" y1="1171.0391" y2="1171.0391"/><text fill="#000000" font-family="sans-serif" font-size="13" lengthAdjust="spacing" textLength="136.0303" x="90.6226" y="1165.9731">GET /v1/chassis/data</text></g><g class="message" data-participant-1="Gateway" data-participant-2="A"><polygon fill="#181818" points="948.7568,1196.1719,958.7568,1200.1719,948.7568,1204.1719,952.7568,1200.1719" style="stroke:#181818;stroke-width:1;"/><line style="stroke:#181818;stroke-width:1;" x1="243.6528" x2="954.7568" y1="1200.1719" y2="1200.1719"/><text fill="#000000" font-family="sans-serif" font-size="13" lengthAdjust="spacing" textLength="215.0903" x="250.6528" y="1195.106">Forward request (X-Forwarded-*)</text></g><path d="M248,1213.1719 L248,1238.1719 L586,1238.1719 L586,1223.1719 L576,1213.1719 L248,1213.1719" fill="#FEFFDD" style="stroke:#181818;stroke-width:0.5;"/><path d="M576,1213.1719 L576,1223.1719 L586,1223.1719 L576,1213.1719" fill="#FEFFDD" style="stroke:#181818;stroke-width:0.5;"/><text fill="#000000" font-family="sans-serif" font-size="13" lengthAdjust="spacing" textLength="317.4526" x="254" y="1230.2388">Look up for right sovd server in the routing table</text><g class="message" data-participant-1="A" data-participant-2="Gateway"><polygon fill="#181818" points="254.6528,1260.4375,244.6528,1264.4375,254.6528,1268.4375,250.6528,1264.4375" style="stroke:#181818;stroke-width:1;"/><line style="stroke:#181818;stroke-width:1;stroke-dasharray:2,2;" x1="248.6528" x2="959.7568" y1="1264.4375" y2="1264.4375"/><text fill="#000000" font-family="sans-serif" font-size="13" lengthAdjust="spacing" textLength="279.5889" x="260.6528" y="1259.3716">200 OK (hrefs, modfied with Forward-Host)</text></g><g class="message" data-participant-1="Gateway" data-participant-2="Client"><polygon fill="#181818" points="94.6226,1289.5703,84.6226,1293.5703,94.6226,1297.5703,90.6226,1293.5703" style="stroke:#181818;stroke-width:1;"/><line style="stroke:#181818;stroke-width:1;stroke-dasharray:2,2;" x1="88.6226" x2="242.6528" y1="1293.5703" y2="1293.5703"/><text fill="#000000" font-family="sans-serif" font-size="13" lengthAdjust="spacing" textLength="47.7026" x="100.6226" y="1288.5044">200 OK</text></g><rect fill="#EEEEEE" height="3" style="stroke:#EEEEEE;stroke-width:1;" width="1647.1504" x="0" y="1322.1367"/><line style="stroke:#000000;stroke-width:1;" x1="0" x2="1647.1504" y1="1322.1367" y2="1322.1367"/><line style="stroke:#000000;stroke-width:1;" x1="0" x2="1647.1504" y1="1325.1367" y2="1325.1367"/><rect fill="#EEEEEE" height="23.1328" style="stroke:#000000;stroke-width:2;" width="135.3989" x="755.8757" y="1311.5703"/><text fill="#000000" font-family="sans-serif" font-size="13" font-weight="bold" lengthAdjust="spacing" textLength="116.873" x="761.8757" y="1327.6372">Upstream Down</text><g class="message" data-participant-1="A" data-participant-2="MDNS"><polygon fill="#181818" points="694.3394,1361.8359,684.3394,1365.8359,694.3394,1369.8359,690.3394,1365.8359" style="stroke:#181818;stroke-width:1;"/><line style="stroke:#181818;stroke-width:1;" x1="688.3394" x2="959.7568" y1="1365.8359" y2="1365.8359"/><text fill="#000000" font-family="sans-serif" font-size="13" lengthAdjust="spacing" textLength="163.5728" x="700.3394" y="1360.77">Send "Goodbye" (TTL=0)</text></g><g class="message" data-participant-1="MDNS" data-participant-2="Gateway"><polygon fill="#181818" points="254.6528,1390.9688,244.6528,1394.9688,254.6528,1398.9688,250.6528,1394.9688" style="stroke:#181818;stroke-width:1;"/><line style="stroke:#181818;stroke-width:1;" x1="248.6528" x2="682.3394" y1="1394.9688" y2="1394.9688"/><text fill="#000000" font-family="sans-serif" font-size="13" lengthAdjust="spacing" textLength="196.9233" x="260.6528" y="1389.9028">Notify(ServiceDown, A@7690)</text></g><g class="message" data-participant-1="Gateway" data-participant-2="Gateway"><line style="stroke:#181818;stroke-width:1;" x1="243.6528" x2="285.6528" y1="1424.1016" y2="1424.1016"/><line style="stroke:#181818;stroke-width:1;" x1="285.6528" x2="285.6528" y1="1424.1016" y2="1437.1016"/><line style="stroke:#181818;stroke-width:1;" x1="244.6528" x2="285.6528" y1="1437.1016" y2="1437.1016"/><polygon fill="#181818" points="254.6528,1433.1016,244.6528,1437.1016,254.6528,1441.1016,250.6528,1437.1016" style="stroke:#181818;stroke-width:1;"/><text fill="#000000" font-family="sans-serif" font-size="13" lengthAdjust="spacing" textLength="243.166" x="250.6528" y="1419.0356">Remove SOVD Server from active list</text></g><path d="M248,1450.1016 L248,1490.1016 L403,1490.1016 L403,1460.1016 L393,1450.1016 L248,1450.1016" fill="#FEFFDD" style="stroke:#181818;stroke-width:0.5;"/><path d="M393,1450.1016 L393,1460.1016 L403,1460.1016 L393,1450.1016" fill="#FEFFDD" style="stroke:#181818;stroke-width:0.5;"/><text fill="#000000" font-family="sans-serif" font-size="13" lengthAdjust="spacing" textLength="134.5132" x="254" y="1467.1685">Active upstream list:</text><text fill="#000000" font-family="sans-serif" font-size="13" lengthAdjust="spacing" textLength="110.0493" x="254" y="1482.3013">B@7690 (v1.0.0)</text><rect fill="#EEEEEE" height="3" style="stroke:#EEEEEE;stroke-width:1;" width="1647.1504" x="0" y="1515.9336"/><line style="stroke:#000000;stroke-width:1;" x1="0" x2="1647.1504" y1="1515.9336" y2="1515.9336"/><line style="stroke:#000000;stroke-width:1;" x1="0" x2="1647.1504" y1="1518.9336" y2="1518.9336"/><rect fill="#EEEEEE" height="23.1328" style="stroke:#000000;stroke-width:2;" width="191.0552" x="728.0476" y="1505.3672"/><text fill="#000000" font-family="sans-serif" font-size="13" font-weight="bold" lengthAdjust="spacing" textLength="172.5293" x="734.0476" y="1521.4341">New Upstream Appears</text><g class="message" data-participant-1="C" data-participant-2="MDNS"><polygon fill="#181818" points="694.3394,1555.6328,684.3394,1559.6328,694.3394,1563.6328,690.3394,1559.6328" style="stroke:#181818;stroke-width:1;"/><line style="stroke:#181818;stroke-width:1;" x1="688.3394" x2="1361.3833" y1="1559.6328" y2="1559.6328"/><text fill="#000000" font-family="sans-serif" font-size="13" lengthAdjust="spacing" textLength="253.4175" x="700.3394" y="1554.5669">Advertise _sovd._tcp.local (port=8082)</text></g><g class="message" data-participant-1="MDNS" data-participant-2="Gateway"><polygon fill="#181818" points="254.6528,1584.7656,244.6528,1588.7656,254.6528,1592.7656,250.6528,1588.7656" style="stroke:#181818;stroke-width:1;"/><line style="stroke:#181818;stroke-width:1;" x1="248.6528" x2="682.3394" y1="1588.7656" y2="1588.7656"/><text fill="#000000" font-family="sans-serif" font-size="13" lengthAdjust="spacing" textLength="178.0391" x="260.6528" y="1583.6997">Notify(ServiceUp, C@8082)</text></g><g class="message" data-participant-1="Gateway" data-participant-2="C"><polygon fill="#181818" points="1350.3833,1613.8984,1360.3833,1617.8984,1350.3833,1621.8984,1354.3833,1617.8984" style="stroke:#181818;stroke-width:1;"/><line style="stroke:#181818;stroke-width:1;" x1="243.6528" x2="1356.3833" y1="1617.8984" y2="1617.8984"/><text fill="#000000" font-family="sans-serif" font-size="13" lengthAdjust="spacing" textLength="241.96" x="250.6528" y="1612.8325">HTTP GET /{entity-path}/version-info</text></g><g class="message" data-participant-1="C" data-participant-2="Gateway"><polygon fill="#181818" points="254.6528,1643.0313,244.6528,1647.0313,254.6528,1651.0313,250.6528,1647.0313" style="stroke:#181818;stroke-width:1;"/><line style="stroke:#181818;stroke-width:1;stroke-dasharray:2,2;" x1="248.6528" x2="1361.3833" y1="1647.0313" y2="1647.0313"/><text fill="#000000" font-family="sans-serif" font-size="13" lengthAdjust="spacing" textLength="487.0239" x="260.6528" y="1641.9653">200 OK {"version":"1.0.0","base_uri":"http://cda:7690/","vendor_info": {}}</text></g><g class="message" data-participant-1="Gateway" data-participant-2="Gateway"><line style="stroke:#181818;stroke-width:1;" x1="243.6528" x2="285.6528" y1="1676.1641" y2="1676.1641"/><line style="stroke:#181818;stroke-width:1;" x1="285.6528" x2="285.6528" y1="1676.1641" y2="1689.1641"/><line style="stroke:#181818;stroke-width:1;" x1="244.6528" x2="285.6528" y1="1689.1641" y2="1689.1641"/><polygon fill="#181818" points="254.6528,1685.1641,244.6528,1689.1641,254.6528,1693.1641,250.6528,1689.1641" style="stroke:#181818;stroke-width:1;"/><text fill="#000000" font-family="sans-serif" font-size="13" lengthAdjust="spacing" textLength="425.6865" x="250.6528" y="1671.0981">Update C(version="1.0.0", base_path) to active UpstreamInfo list</text></g><g class="message" data-participant-1="Gateway" data-participant-2="C"><polygon fill="#181818" points="1350.3833,1714.2969,1360.3833,1718.2969,1350.3833,1722.2969,1354.3833,1718.2969" style="stroke:#181818;stroke-width:1;"/><line style="stroke:#181818;stroke-width:1;" x1="243.6528" x2="1356.3833" y1="1718.2969" y2="1718.2969"/><text fill="#000000" font-family="sans-serif" font-size="13" lengthAdjust="spacing" textLength="270.0737" x="250.6528" y="1713.231">HTTP GET /{entity-path}/entity-collection</text></g><g class="message" data-participant-1="C" data-participant-2="Gateway"><polygon fill="#181818" points="254.6528,1743.4297,244.6528,1747.4297,254.6528,1751.4297,250.6528,1747.4297" style="stroke:#181818;stroke-width:1;"/><line style="stroke:#181818;stroke-width:1;stroke-dasharray:2,2;" x1="248.6528" x2="1361.3833" y1="1747.4297" y2="1747.4297"/><text fill="#000000" font-family="sans-serif" font-size="13" lengthAdjust="spacing" textLength="483.7358" x="260.6528" y="1742.3638">200 OK {[{"name": "component","translation_id":"id","href":"base_uri"}]}</text></g><g class="message" data-participant-1="Gateway" data-participant-2="Gateway"><line style="stroke:#181818;stroke-width:1;" x1="243.6528" x2="285.6528" y1="1776.5625" y2="1776.5625"/><line style="stroke:#181818;stroke-width:1;" x1="285.6528" x2="285.6528" y1="1776.5625" y2="1789.5625"/><line style="stroke:#181818;stroke-width:1;" x1="244.6528" x2="285.6528" y1="1789.5625" y2="1789.5625"/><polygon fill="#181818" points="254.6528,1785.5625,244.6528,1789.5625,254.6528,1793.5625,250.6528,1789.5625" style="stroke:#181818;stroke-width:1;"/><text fill="#000000" font-family="sans-serif" font-size="13" lengthAdjust="spacing" textLength="377.9775" x="250.6528" y="1771.4966">Update C(EntityReference List) to active UpstreamInfo list</text></g><path d="M248,1802.5625 L248,1857.5625 L528,1857.5625 L528,1812.5625 L518,1802.5625 L248,1802.5625" fill="#FEFFDD" style="stroke:#181818;stroke-width:0.5;"/><path d="M518,1802.5625 L518,1812.5625 L528,1812.5625 L518,1802.5625" fill="#FEFFDD" style="stroke:#181818;stroke-width:0.5;"/><text fill="#000000" font-family="sans-serif" font-size="13" lengthAdjust="spacing" textLength="134.5132" x="254" y="1819.6294">Active upstream list:</text><text fill="#000000" font-family="sans-serif" font-size="13" lengthAdjust="spacing" textLength="129.1113" x="254" y="1834.7622">CDA@7690 (v1.0.0)</text><text fill="#000000" font-family="sans-serif" font-size="13" lengthAdjust="spacing" textLength="259.4414" x="254" y="1849.895">Powertrain SOVD Server@8082 (v1.0.0)</text><rect fill="#EEEEEE" height="3" style="stroke:#EEEEEE;stroke-width:1;" width="1647.1504" x="0" y="1883.5273"/><line style="stroke:#000000;stroke-width:1;" x1="0" x2="1647.1504" y1="1883.5273" y2="1883.5273"/><line style="stroke:#000000;stroke-width:1;" x1="0" x2="1647.1504" y1="1886.5273" y2="1886.5273"/><rect fill="#EEEEEE" height="23.1328" style="stroke:#000000;stroke-width:2;" width="232.7847" x="707.1829" y="1872.9609"/><text fill="#000000" font-family="sans-serif" font-size="13" font-weight="bold" lengthAdjust="spacing" textLength="214.2588" x="713.1829" y="1889.0278">Gateway Functional requests</text><path d="M248,1911.0938 L248,1936.0938 L1072,1936.0938 L1072,1921.0938 L1062,1911.0938 L248,1911.0938" fill="#FEFFDD" style="stroke:#181818;stroke-width:0.5;"/><path d="M1062,1911.0938 L1062,1921.0938 L1072,1921.0938 L1062,1911.0938" fill="#FEFFDD" style="stroke:#181818;stroke-width:0.5;"/><text fill="#000000" font-family="sans-serif" font-size="13" lengthAdjust="spacing" textLength="799.7222" x="254" y="1928.1606">In a functional view request, gateway shall query all known upstreams and consolidate the response to the offboard Client</text><!--SRC=[nLZTR-8u47_FNp7AlS092FHXhnkLQadQRT7r0nNQMscrecxY5AiXpja6hchxlz_OCH0ez6ElskC14djcFFERJwEOIYdqpwyEu8WeEYFtZaCYnGMuPl4yIMuu4J64AQEPSe58- -ZaH2WMiPnaoX9R2OPeBcs5QdnmreSBAdEUnLGOkbDSMYKAHqHA9Wkb-bHCBMLdZIpLP14SC7ARSOaRI1AJN5dom77QRSFF8efKCk8ewHvwA9v2k-qu7QZlc_DzPCGznN1ZAFaqRWnLb3TI7f4KAZaNglt7fy_DgXEycyFHr9hBuk736LSikQzOnIxp6dI-MDgCAmg2tOuKy6I1e05jy6s0m4LSnBvpVdWwx0cQi7_Q3-W8fkwV79h5eDcTRL9- -uw8iocj7D2RoMqDdSWpMltXv9CRa4fC8WMNEJvGCkvc2OS71_2ZTrac5SaYEip8cFhGLu9bA63rutb06xSDSESQDTPXSHS2H-YjbsIj2jpJSL0lug1-ZApxIqaaZWMLqeVpN36UxNNp3gxirzOb8H5FfpI6Rc_1gvtamwJrQUFnQrfe1oqufmWs5yE9O4CvIT0DcmnPw3zIAlSzBogYkZ7A8rzBy_QUYIaPTeCnEio96hs4qGj7U6v9Mo4HcnV1NegQjfQSnfEC8hnNDDehsFStETvul1xnDAMHzeE4YKWXPL8vvSYqeQYpeUF3yM3GWwF30NWsPEhQtYVFwbjd68KwHSkvizDimlcVyE1Q8jTtMurce-dMN8COOebBsn17AekvbktwyF3qL5PgSSnb7kCZT2hscFRybALVgg0uOA74Z5hD6sFr6qrz1jmsUxy_k3fXK6KtucEidheKrrmbI2PJeZc7B4RByQlcZh0quFC2aASVhrXvQDG85rh02ThmYe5lA6k1BMkbiuCtkZtuBswFoS-vE_WGTmVlSNVmwzqT_9IxD_UKJa4_iVI6rdTAVTj405Ic1i-g4nvqrbPURLiNVAAmxC20tE2SeckKNr2kJ1omGcRQ_vdp25tRkJQMl4SujdseUElse5Eq4_FQm_Q0FrScWk3oeWjzKwHnBT03H0zTkaLk0R215HvHZNaXUZOeM7gxNxoqFkyqMfzs6wr6gucl1gv7EAKYeZ6LoqEsjXLEntMPquWbBDhtfYrBV_sm2EOdRn5LqkihIdLXlwx1zQfCv2qJ1eBSQJfZKivdEFq8mh9DLfNtjKdewi8UisTD2ax_MiFD7b-I_P9LsqtgPdeqeqARL2OX6AJUG2VHc4cTwDeM7O7wguX2d1ZFk1YZ5USv5IRLpAZe53FlIaAP3DSOMRWmlSXQuV_AnKmFpuB-FQ4O3PLlTRj4u_hlrIqnVyBv7IOL91XunQQ66AH9AHp7G8sGoqQyqX6_pAFD3QIYYuIimPZ72SCnQCOmUAqcPgOgLMbaBuoTSnjKvZK13lWiMv-U-_fuzuZp-EOUiwyo69oqCRbVwH5QqdButLIoBkWOP_RoHG0ImSVpElN-qXHiBJ_QyNIsDBEJvvG8QInTkNRqbf6zVa49dV0TzuFTvkvEzIrzDFnIa9OG2j_OHyF_eu-67z97m_VqqV3Nzz7Gzj4Bcb11TPFvu3Rwl5bk3ZqJ7Lj2Ugx_rqbcWCBWiwN8HFPcTReP44YM75E6YM7PQd1hHSeHILF0HRnIwwUxJ1U6kGqI2EeHuLM0fypWPMgMkVbZIY18-fsl_ha02-N_1G00]--></g></svg>