<svg xmlns="http://www.w3.org/2000/svg" xmlns:xlink="http://www.w3.org/1999/xlink" contentStyleType="text/css" data-diagram-type="SEQUENCE" height="1487px" preserveAspectRatio="none" style="width:1306px;height:1487px;background:#FFFFFF;" version="1.1" viewBox="0 0 1306 1487" width="1306px" zoomAndPan="magnify"><title>SOVD Gateway</title><defs/><g><text fill="#000000" font-family="sans-serif" font-size="14" font-weight="bold" lengthAdjust="spacing" textLength="117.9473" x="590.4963" y="27.9951">SOVD Gateway</text><g><title>SOVD Offboard Client</title><rect fill="#000000" fill-opacity="0.00000" height="1288.1094" width="8" x="79.6226" y="118.5938"/><line style="stroke:#181818;stroke-width:0.5;stroke-dasharray:5,5;" x1="83" x2="83" y1="118.5938" y2="1406.7031"/></g><g><title>SOVD Gateway</title><rect fill="#000000" fill-opacity="0.00000" height="1288.1094" width="8" x="263.8628" y="118.5938"/><line style="stroke:#181818;stroke-width:0.5;stroke-dasharray:5,5;" x1="267.5835" x2="267.5835" y1="118.5938" y2="1406.7031"/></g><g><title>mDNS Responder</title><rect fill="#000000" fill-opacity="0.00000" height="1288.1094" width="8" x="628.2407" y="118.5938"/><line style="stroke:#181818;stroke-width:0.5;stroke-dasharray:5,5;" x1="631.519" x2="631.519" y1="118.5938" y2="1406.7031"/></g><g><title>SOVD Server</title><rect fill="#000000" fill-opacity="0.00000" height="1288.1094" width="8" x="905.6582" y="118.5938"/><line style="stroke:#181818;stroke-width:0.5;stroke-dasharray:5,5;" x1="909.3462" x2="909.3462" y1="118.5938" y2="1406.7031"/></g><g><title>Classic Diagnostics Adapter</title><rect fill="#000000" fill-opacity="0.00000" height="1288.1094" width="8" x="1072.1431" y="118.5938"/><line style="stroke:#181818;stroke-width:0.5;stroke-dasharray:5,5;" x1="1075.9702" x2="1075.9702" y1="118.5938" y2="1406.7031"/></g><g><title>SOVD Server</title><rect fill="#000000" fill-opacity="0.00000" height="1288.1094" width="8" x="1238.6279" y="118.5938"/><line style="stroke:#181818;stroke-width:0.5;stroke-dasharray:5,5;" x1="1242.3159" x2="1242.3159" y1="118.5938" y2="1406.7031"/></g><g class="participant participant-head" data-participant="Client"><text fill="#000000" font-family="sans-serif" font-size="14" lengthAdjust="spacing" textLength="151.2451" x="5" y="115.292">SOVD Offboard Client</text><ellipse cx="83.6226" cy="50.7969" fill="#E2E2F0" rx="8" ry="8" style="stroke:#181818;stroke-width:0.5;"/><path d="M83.6226,58.7969 L83.6226,85.7969 M70.6226,66.7969 L96.6226,66.7969 M83.6226,85.7969 L70.6226,100.7969 M83.6226,85.7969 L96.6226,100.7969" fill="none" style="stroke:#181818;stroke-width:0.5;"/></g><g class="participant participant-tail" data-participant="Client"><text fill="#000000" font-family="sans-serif" font-size="14" lengthAdjust="spacing" textLength="151.2451" x="5" y="1418.6982">SOVD Offboard Client</text><ellipse cx="83.6226" cy="1430.5" fill="#E2E2F0" rx="8" ry="8" style="stroke:#181818;stroke-width:0.5;"/><path d="M83.6226,1438.5 L83.6226,1465.5 M70.6226,1446.5 L96.6226,1446.5 M83.6226,1465.5 L70.6226,1480.5 M83.6226,1465.5 L96.6226,1480.5" fill="none" style="stroke:#181818;stroke-width:0.5;"/></g><g class="participant participant-head" data-participant="Gateway"><rect fill="#E2E2F0" height="30.2969" rx="2.5" ry="2.5" style="stroke:#181818;stroke-width:0.5;" width="120.5586" x="207.5835" y="87.2969"/><text fill="#000000" font-family="sans-serif" font-size="14" lengthAdjust="spacing" textLength="106.5586" x="214.5835" y="107.292">SOVD Gateway</text></g><g class="participant participant-tail" data-participant="Gateway"><rect fill="#E2E2F0" height="30.2969" rx="2.5" ry="2.5" style="stroke:#181818;stroke-width:0.5;" width="120.5586" x="207.5835" y="1405.7031"/><text fill="#000000" font-family="sans-serif" font-size="14" lengthAdjust="spacing" textLength="106.5586" x="214.5835" y="1425.6982">SOVD Gateway</text></g><g class="participant participant-head" data-participant="MDNS"><rect fill="#E2E2F0" height="30.2969" rx="2.5" ry="2.5" style="stroke:#181818;stroke-width:0.5;" width="137.4434" x="563.519" y="87.2969"/><text fill="#000000" font-family="sans-serif" font-size="14" lengthAdjust="spacing" textLength="123.4434" x="570.519" y="107.292">mDNS Responder</text></g><g class="participant participant-tail" data-participant="MDNS"><rect fill="#E2E2F0" height="30.2969" rx="2.5" ry="2.5" style="stroke:#181818;stroke-width:0.5;" width="137.4434" x="563.519" y="1405.7031"/><text fill="#000000" font-family="sans-serif" font-size="14" lengthAdjust="spacing" textLength="123.4434" x="570.519" y="1425.6982">mDNS Responder</text></g><g class="participant participant-head" data-participant="A"><rect fill="#E2E2F0" height="30.2969" rx="2.5" ry="2.5" style="stroke:#181818;stroke-width:0.5;" width="104.624" x="857.3462" y="87.2969"/><text fill="#000000" font-family="sans-serif" font-size="14" lengthAdjust="spacing" textLength="90.624" x="864.3462" y="107.292">SOVD Server</text></g><g class="participant participant-tail" data-participant="A"><rect fill="#E2E2F0" height="30.2969" rx="2.5" ry="2.5" style="stroke:#181818;stroke-width:0.5;" width="104.624" x="857.3462" y="1405.7031"/><text fill="#000000" font-family="sans-serif" font-size="14" lengthAdjust="spacing" textLength="90.624" x="864.3462" y="1425.6982">SOVD Server</text></g><g class="participant participant-head" data-participant="B"><rect fill="#E2E2F0" height="30.2969" rx="2.5" ry="2.5" style="stroke:#181818;stroke-width:0.5;" width="208.3457" x="971.9702" y="87.2969"/><text fill="#000000" font-family="sans-serif" font-size="14" lengthAdjust="spacing" textLength="194.3457" x="978.9702" y="107.292">Classic Diagnostics Adapter</text></g><g class="participant participant-tail" data-participant="B"><rect fill="#E2E2F0" height="30.2969" rx="2.5" ry="2.5" style="stroke:#181818;stroke-width:0.5;" width="208.3457" x="971.9702" y="1405.7031"/><text fill="#000000" font-family="sans-serif" font-size="14" lengthAdjust="spacing" textLength="194.3457" x="978.9702" y="1425.6982">Classic Diagnostics Adapter</text></g><g class="participant participant-head" data-participant="C"><rect fill="#E2E2F0" height="30.2969" rx="2.5" ry="2.5" style="stroke:#181818;stroke-width:0.5;" width="104.624" x="1190.3159" y="87.2969"/><text fill="#000000" font-family="sans-serif" font-size="14" lengthAdjust="spacing" textLength="90.624" x="1197.3159" y="107.292">SOVD Server</text></g><g class="participant participant-tail" data-participant="C"><rect fill="#E2E2F0" height="30.2969" rx="2.5" ry="2.5" style="stroke:#181818;stroke-width:0.5;" width="104.624" x="1190.3159" y="1405.7031"/><text fill="#000000" font-family="sans-serif" font-size="14" lengthAdjust="spacing" textLength="90.624" x="1197.3159" y="1425.6982">SOVD Server</text></g><rect fill="#EEEEEE" height="3" style="stroke:#EEEEEE;stroke-width:1;" width="1299.9399" x="0" y="149.1602"/><line style="stroke:#000000;stroke-width:1;" x1="0" x2="1299.9399" y1="149.1602" y2="149.1602"/><line style="stroke:#000000;stroke-width:1;" x1="0" x2="1299.9399" y1="152.1602" y2="152.1602"/><rect fill="#EEEEEE" height="23.1328" style="stroke:#000000;stroke-width:2;" width="197.5298" x="551.2051" y="138.5938"/><text fill="#000000" font-family="sans-serif" font-size="13" font-weight="bold" lengthAdjust="spacing" textLength="179.0039" x="557.2051" y="154.6606">Service Discovery Phase</text><g class="message" data-participant-1="A" data-participant-2="MDNS"><polygon fill="#181818" points="643.2407,188.8594,633.2407,192.8594,643.2407,196.8594,639.2407,192.8594" style="stroke:#181818;stroke-width:1;"/><line style="stroke:#181818;stroke-width:1;" x1="637.2407" x2="908.6582" y1="192.8594" y2="192.8594"/><text fill="#000000" font-family="sans-serif" font-size="13" lengthAdjust="spacing" textLength="253.4175" x="649.2407" y="187.7935">Advertise _sovd._tcp.local (port=7690)</text></g><g class="message" data-participant-1="B" data-participant-2="MDNS"><polygon fill="#181818" points="643.2407,217.9922,633.2407,221.9922,643.2407,225.9922,639.2407,221.9922" style="stroke:#181818;stroke-width:1;"/><line style="stroke:#181818;stroke-width:1;" x1="637.2407" x2="1075.1431" y1="221.9922" y2="221.9922"/><text fill="#000000" font-family="sans-serif" font-size="13" lengthAdjust="spacing" textLength="253.4175" x="649.2407" y="216.9263">Advertise _sovd._tcp.local (port=7690)</text></g><path d="M272,234.9922 L272,304.9922 L426,304.9922 L426,244.9922 L416,234.9922 L272,234.9922" fill="#FEFFDD" style="stroke:#181818;stroke-width:0.5;"/><path d="M416,234.9922 L416,244.9922 L426,244.9922 L416,234.9922" fill="#FEFFDD" style="stroke:#181818;stroke-width:0.5;"/><text fill="#000000" font-family="sans-serif" font-size="13" lengthAdjust="spacing" textLength="123.811" x="278" y="252.0591">mDNS TXT Record:</text><text fill="#000000" font-family="sans-serif" font-size="13" lengthAdjust="spacing" textLength="106.9199" x="278" y="267.1919">ecu_id={entity}</text><text fill="#000000" font-family="sans-serif" font-size="13" lengthAdjust="spacing" textLength="133.3516" x="278" y="282.3247">path=/{entity-path}</text><text fill="#000000" font-family="sans-serif" font-size="13" lengthAdjust="spacing" textLength="74.4707" x="278" y="297.4575">version=v1</text><g class="message" data-participant-1="MDNS" data-participant-2="Gateway"><polygon fill="#181818" points="278.8628,327.6563,268.8628,331.6563,278.8628,335.6563,274.8628,331.6563" style="stroke:#181818;stroke-width:1;"/><line style="stroke:#181818;stroke-width:1;" x1="272.8628" x2="631.2407" y1="331.6563" y2="331.6563"/><text fill="#000000" font-family="sans-serif" font-size="13" lengthAdjust="spacing" textLength="177.855" x="284.8628" y="326.5903">Notify(ServiceUp, A@7690)</text></g><path d="M272,344.6563 L272,475.6563 L764,475.6563 L764,354.6563 L754,344.6563 L272,344.6563" fill="#FEFFDD" style="stroke:#181818;stroke-width:0.5;"/><path d="M754,344.6563 L754,354.6563 L764,354.6563 L754,344.6563" fill="#FEFFDD" style="stroke:#181818;stroke-width:0.5;"/><text fill="#000000" font-family="sans-serif" font-size="13" lengthAdjust="spacing" textLength="12.4033" x="278" y="361.7231">1.</text><text fill="#000000" font-family="sans-serif" font-size="13" lengthAdjust="spacing" textLength="149.0811" x="294.5356" y="361.7231">[derive(Debug, Clone)]</text><text fill="#000000" font-family="sans-serif" font-size="13" lengthAdjust="spacing" textLength="171.3232" x="278" y="376.856">pub struct UpstreamInfo {</text><text fill="#000000" font-family="sans-serif" font-size="13" lengthAdjust="spacing" textLength="455.3745" x="294.5293" y="391.9888">pub instance_name: String,               // e.g. "{entity}._sovd._tcp.local"</text><text fill="#000000" font-family="sans-serif" font-size="13" lengthAdjust="spacing" textLength="351.0254" x="294.5293" y="407.1216">pub hostname: String,                    // e.g. "entity.com"</text><text fill="#000000" font-family="sans-serif" font-size="13" lengthAdjust="spacing" textLength="338.9204" x="294.5293" y="422.2544">pub address: Option&lt;IpAddr&gt;,             // resolved IP</text><text fill="#000000" font-family="sans-serif" font-size="13" lengthAdjust="spacing" textLength="279.1445" x="294.5293" y="437.3872">pub port: u16,                           // e.g. 7690</text><text fill="#000000" font-family="sans-serif" font-size="13" lengthAdjust="spacing" textLength="340.6343" x="294.5293" y="452.52">pub path_prefix: String,                 // e.g. "/{entity}/"</text><text fill="#000000" font-family="sans-serif" font-size="13" lengthAdjust="spacing" textLength="8.271" x="278" y="467.6528">}</text><g class="message" data-participant-1="Gateway" data-participant-2="A"><polygon fill="#181818" points="897.6582,497.8516,907.6582,501.8516,897.6582,505.8516,901.6582,501.8516" style="stroke:#181818;stroke-width:1;"/><line style="stroke:#181818;stroke-width:1;" x1="267.8628" x2="903.6582" y1="501.8516" y2="501.8516"/><text fill="#000000" font-family="sans-serif" font-size="13" lengthAdjust="spacing" textLength="241.96" x="274.8628" y="496.7856">HTTP GET /{entity-path}/version-info</text></g><g class="message" data-participant-1="A" data-participant-2="Gateway"><polygon fill="#181818" points="278.8628,526.9844,268.8628,530.9844,278.8628,534.9844,274.8628,530.9844" style="stroke:#181818;stroke-width:1;"/><line style="stroke:#181818;stroke-width:1;stroke-dasharray:2,2;" x1="272.8628" x2="908.6582" y1="530.9844" y2="530.9844"/><text fill="#000000" font-family="sans-serif" font-size="13" lengthAdjust="spacing" textLength="169.5396" x="284.8628" y="525.9185">200 OK {version: "1.0.0"}</text></g><g class="message" data-participant-1="Gateway" data-participant-2="Gateway"><line style="stroke:#181818;stroke-width:1;" x1="267.8628" x2="309.8628" y1="560.1172" y2="560.1172"/><line style="stroke:#181818;stroke-width:1;" x1="309.8628" x2="309.8628" y1="560.1172" y2="573.1172"/><line style="stroke:#181818;stroke-width:1;" x1="268.8628" x2="309.8628" y1="573.1172" y2="573.1172"/><polygon fill="#181818" points="278.8628,569.1172,268.8628,573.1172,278.8628,577.1172,274.8628,573.1172" style="stroke:#181818;stroke-width:1;"/><text fill="#000000" font-family="sans-serif" font-size="13" lengthAdjust="spacing" textLength="350.1938" x="274.8628" y="555.0513">Update A(version="1.0.0") to active UpstreamInfo list</text></g><g class="message" data-participant-1="MDNS" data-participant-2="Gateway"><polygon fill="#181818" points="278.8628,598.25,268.8628,602.25,278.8628,606.25,274.8628,602.25" style="stroke:#181818;stroke-width:1;"/><line style="stroke:#181818;stroke-width:1;" x1="272.8628" x2="631.2407" y1="602.25" y2="602.25"/><text fill="#000000" font-family="sans-serif" font-size="13" lengthAdjust="spacing" textLength="177.8804" x="284.8628" y="597.1841">Notify(ServiceUp, B@7690)</text></g><g class="message" data-participant-1="Gateway" data-participant-2="B"><polygon fill="#181818" points="1064.1431,627.3828,1074.1431,631.3828,1064.1431,635.3828,1068.1431,631.3828" style="stroke:#181818;stroke-width:1;"/><line style="stroke:#181818;stroke-width:1;" x1="267.8628" x2="1070.1431" y1="631.3828" y2="631.3828"/><text fill="#000000" font-family="sans-serif" font-size="13" lengthAdjust="spacing" textLength="149.0557" x="274.8628" y="626.3169">HTTP GET /version-info</text></g><g class="message" data-participant-1="B" data-participant-2="Gateway"><polygon fill="#181818" points="278.8628,656.5156,268.8628,660.5156,278.8628,664.5156,274.8628,660.5156" style="stroke:#181818;stroke-width:1;"/><line style="stroke:#181818;stroke-width:1;stroke-dasharray:2,2;" x1="272.8628" x2="1075.1431" y1="660.5156" y2="660.5156"/><text fill="#000000" font-family="sans-serif" font-size="13" lengthAdjust="spacing" textLength="169.5396" x="284.8628" y="655.4497">200 OK {version: "1.0.0"}</text></g><g class="message" data-participant-1="Gateway" data-participant-2="Gateway"><line style="stroke:#181818;stroke-width:1;" x1="267.8628" x2="309.8628" y1="689.6484" y2="689.6484"/><line style="stroke:#181818;stroke-width:1;" x1="309.8628" x2="309.8628" y1="689.6484" y2="702.6484"/><line style="stroke:#181818;stroke-width:1;" x1="268.8628" x2="309.8628" y1="702.6484" y2="702.6484"/><polygon fill="#181818" points="278.8628,698.6484,268.8628,702.6484,278.8628,706.6484,274.8628,702.6484" style="stroke:#181818;stroke-width:1;"/><text fill="#000000" font-family="sans-serif" font-size="13" lengthAdjust="spacing" textLength="302.6563" x="274.8628" y="684.5825">Add B(version="1.0.0") to active upstream list</text></g><path d="M272,715.6484 L272,770.6484 L478,770.6484 L478,725.6484 L468,715.6484 L272,715.6484" fill="#FEFFDD" style="stroke:#181818;stroke-width:0.5;"/><path d="M468,715.6484 L468,725.6484 L478,725.6484 L468,715.6484" fill="#FEFFDD" style="stroke:#181818;stroke-width:0.5;"/><text fill="#000000" font-family="sans-serif" font-size="13" lengthAdjust="spacing" textLength="134.5132" x="278" y="732.7153">Active upstream list:</text><text fill="#000000" font-family="sans-serif" font-size="13" lengthAdjust="spacing" textLength="185.2817" x="278" y="747.8481">SOVD Server@7690 (v1.0.0)</text><text fill="#000000" font-family="sans-serif" font-size="13" lengthAdjust="spacing" textLength="129.1113" x="278" y="762.981">CDA@7690 (v1.0.0)</text><rect fill="#EEEEEE" height="3" style="stroke:#EEEEEE;stroke-width:1;" width="1299.9399" x="0" y="796.6133"/><line style="stroke:#000000;stroke-width:1;" x1="0" x2="1299.9399" y1="796.6133" y2="796.6133"/><line style="stroke:#000000;stroke-width:1;" x1="0" x2="1299.9399" y1="799.6133" y2="799.6133"/><rect fill="#EEEEEE" height="23.1328" style="stroke:#000000;stroke-width:2;" width="149.2622" x="575.3389" y="786.0469"/><text fill="#000000" font-family="sans-serif" font-size="13" font-weight="bold" lengthAdjust="spacing" textLength="130.7363" x="581.3389" y="802.1138">Normal Operation</text><g class="message" data-participant-1="Client" data-participant-2="Gateway"><polygon fill="#181818" points="255.8628,836.3125,265.8628,840.3125,255.8628,844.3125,259.8628,840.3125" style="stroke:#181818;stroke-width:1;"/><line style="stroke:#181818;stroke-width:1;" x1="83.6226" x2="261.8628" y1="840.3125" y2="840.3125"/><text fill="#000000" font-family="sans-serif" font-size="13" lengthAdjust="spacing" textLength="160.2402" x="90.6226" y="835.2466">GET /v1/chassis/api/data</text></g><g class="message" data-participant-1="Gateway" data-participant-2="A"><polygon fill="#181818" points="897.6582,865.4453,907.6582,869.4453,897.6582,873.4453,901.6582,869.4453" style="stroke:#181818;stroke-width:1;"/><line style="stroke:#181818;stroke-width:1;" x1="267.8628" x2="903.6582" y1="869.4453" y2="869.4453"/><text fill="#000000" font-family="sans-serif" font-size="13" lengthAdjust="spacing" textLength="215.0903" x="274.8628" y="864.3794">Forward request (X-Forwarded-*)</text></g><g class="message" data-participant-1="A" data-participant-2="Gateway"><polygon fill="#181818" points="278.8628,894.5781,268.8628,898.5781,278.8628,902.5781,274.8628,898.5781" style="stroke:#181818;stroke-width:1;"/><line style="stroke:#181818;stroke-width:1;stroke-dasharray:2,2;" x1="272.8628" x2="908.6582" y1="898.5781" y2="898.5781"/><text fill="#000000" font-family="sans-serif" font-size="13" lengthAdjust="spacing" textLength="279.5889" x="284.8628" y="893.5122">200 OK (hrefs, modfied with Forward-Host)</text></g><g class="message" data-participant-1="Gateway" data-participant-2="Client"><polygon fill="#181818" points="94.6226,923.7109,84.6226,927.7109,94.6226,931.7109,90.6226,927.7109" style="stroke:#181818;stroke-width:1;"/><line style="stroke:#181818;stroke-width:1;stroke-dasharray:2,2;" x1="88.6226" x2="266.8628" y1="927.7109" y2="927.7109"/><text fill="#000000" font-family="sans-serif" font-size="13" lengthAdjust="spacing" textLength="47.7026" x="100.6226" y="922.645">200 OK</text></g><rect fill="#EEEEEE" height="3" style="stroke:#EEEEEE;stroke-width:1;" width="1299.9399" x="0" y="956.2773"/><line style="stroke:#000000;stroke-width:1;" x1="0" x2="1299.9399" y1="956.2773" y2="956.2773"/><line style="stroke:#000000;stroke-width:1;" x1="0" x2="1299.9399" y1="959.2773" y2="959.2773"/><rect fill="#EEEEEE" height="23.1328" style="stroke:#000000;stroke-width:2;" width="135.3989" x="582.2705" y="945.7109"/><text fill="#000000" font-family="sans-serif" font-size="13" font-weight="bold" lengthAdjust="spacing" textLength="116.873" x="588.2705" y="961.7778">Upstream Down</text><g class="message" data-participant-1="A" data-participant-2="MDNS"><polygon fill="#181818" points="643.2407,995.9766,633.2407,999.9766,643.2407,1003.9766,639.2407,999.9766" style="stroke:#181818;stroke-width:1;"/><line style="stroke:#181818;stroke-width:1;" x1="637.2407" x2="908.6582" y1="999.9766" y2="999.9766"/><text fill="#000000" font-family="sans-serif" font-size="13" lengthAdjust="spacing" textLength="163.5728" x="649.2407" y="994.9106">Send "Goodbye" (TTL=0)</text></g><g class="message" data-participant-1="MDNS" data-participant-2="Gateway"><polygon fill="#181818" points="278.8628,1025.1094,268.8628,1029.1094,278.8628,1033.1094,274.8628,1029.1094" style="stroke:#181818;stroke-width:1;"/><line style="stroke:#181818;stroke-width:1;" x1="272.8628" x2="631.2407" y1="1029.1094" y2="1029.1094"/><text fill="#000000" font-family="sans-serif" font-size="13" lengthAdjust="spacing" textLength="196.9233" x="284.8628" y="1024.0435">Notify(ServiceDown, A@7690)</text></g><g class="message" data-participant-1="Gateway" data-participant-2="Gateway"><line style="stroke:#181818;stroke-width:1;" x1="267.8628" x2="309.8628" y1="1058.2422" y2="1058.2422"/><line style="stroke:#181818;stroke-width:1;" x1="309.8628" x2="309.8628" y1="1058.2422" y2="1071.2422"/><line style="stroke:#181818;stroke-width:1;" x1="268.8628" x2="309.8628" y1="1071.2422" y2="1071.2422"/><polygon fill="#181818" points="278.8628,1067.2422,268.8628,1071.2422,278.8628,1075.2422,274.8628,1071.2422" style="stroke:#181818;stroke-width:1;"/><text fill="#000000" font-family="sans-serif" font-size="13" lengthAdjust="spacing" textLength="243.166" x="274.8628" y="1053.1763">Remove SOVD Server from active list</text></g><path d="M272,1084.2422 L272,1124.2422 L427,1124.2422 L427,1094.2422 L417,1084.2422 L272,1084.2422" fill="#FEFFDD" style="stroke:#181818;stroke-width:0.5;"/><path d="M417,1084.2422 L417,1094.2422 L427,1094.2422 L417,1084.2422" fill="#FEFFDD" style="stroke:#181818;stroke-width:0.5;"/><text fill="#000000" font-family="sans-serif" font-size="13" lengthAdjust="spacing" textLength="134.5132" x="278" y="1101.3091">Active upstream list:</text><text fill="#000000" font-family="sans-serif" font-size="13" lengthAdjust="spacing" textLength="110.0493" x="278" y="1116.4419">B@7690 (v1.0.0)</text><rect fill="#EEEEEE" height="3" style="stroke:#EEEEEE;stroke-width:1;" width="1299.9399" x="0" y="1150.0742"/><line style="stroke:#000000;stroke-width:1;" x1="0" x2="1299.9399" y1="1150.0742" y2="1150.0742"/><line style="stroke:#000000;stroke-width:1;" x1="0" x2="1299.9399" y1="1153.0742" y2="1153.0742"/><rect fill="#EEEEEE" height="23.1328" style="stroke:#000000;stroke-width:2;" width="191.0552" x="554.4424" y="1139.5078"/><text fill="#000000" font-family="sans-serif" font-size="13" font-weight="bold" lengthAdjust="spacing" textLength="172.5293" x="560.4424" y="1155.5747">New Upstream Appears</text><g class="message" data-participant-1="C" data-participant-2="MDNS"><polygon fill="#181818" points="643.2407,1189.7734,633.2407,1193.7734,643.2407,1197.7734,639.2407,1193.7734" style="stroke:#181818;stroke-width:1;"/><line style="stroke:#181818;stroke-width:1;" x1="637.2407" x2="1241.6279" y1="1193.7734" y2="1193.7734"/><text fill="#000000" font-family="sans-serif" font-size="13" lengthAdjust="spacing" textLength="253.4175" x="649.2407" y="1188.7075">Advertise _sovd._tcp.local (port=8082)</text></g><g class="message" data-participant-1="MDNS" data-participant-2="Gateway"><polygon fill="#181818" points="278.8628,1218.9063,268.8628,1222.9063,278.8628,1226.9063,274.8628,1222.9063" style="stroke:#181818;stroke-width:1;"/><line style="stroke:#181818;stroke-width:1;" x1="272.8628" x2="631.2407" y1="1222.9063" y2="1222.9063"/><text fill="#000000" font-family="sans-serif" font-size="13" lengthAdjust="spacing" textLength="178.0391" x="284.8628" y="1217.8403">Notify(ServiceUp, C@8082)</text></g><g class="message" data-participant-1="Gateway" data-participant-2="C"><polygon fill="#181818" points="1230.6279,1248.0391,1240.6279,1252.0391,1230.6279,1256.0391,1234.6279,1252.0391" style="stroke:#181818;stroke-width:1;"/><line style="stroke:#181818;stroke-width:1;" x1="267.8628" x2="1236.6279" y1="1252.0391" y2="1252.0391"/><text fill="#000000" font-family="sans-serif" font-size="13" lengthAdjust="spacing" textLength="149.0557" x="274.8628" y="1246.9731">HTTP GET /version-info</text></g><g class="message" data-participant-1="C" data-participant-2="Gateway"><polygon fill="#181818" points="278.8628,1277.1719,268.8628,1281.1719,278.8628,1285.1719,274.8628,1281.1719" style="stroke:#181818;stroke-width:1;"/><line style="stroke:#181818;stroke-width:1;stroke-dasharray:2,2;" x1="272.8628" x2="1241.6279" y1="1281.1719" y2="1281.1719"/><text fill="#000000" font-family="sans-serif" font-size="13" lengthAdjust="spacing" textLength="169.5396" x="284.8628" y="1276.106">200 OK {version: "1.0.0"}</text></g><g class="message" data-participant-1="Gateway" data-participant-2="Gateway"><line style="stroke:#181818;stroke-width:1;" x1="267.8628" x2="309.8628" y1="1310.3047" y2="1310.3047"/><line style="stroke:#181818;stroke-width:1;" x1="309.8628" x2="309.8628" y1="1310.3047" y2="1323.3047"/><line style="stroke:#181818;stroke-width:1;" x1="268.8628" x2="309.8628" y1="1323.3047" y2="1323.3047"/><polygon fill="#181818" points="278.8628,1319.3047,268.8628,1323.3047,278.8628,1327.3047,274.8628,1323.3047" style="stroke:#181818;stroke-width:1;"/><text fill="#000000" font-family="sans-serif" font-size="13" lengthAdjust="spacing" textLength="350.3779" x="274.8628" y="1305.2388">Update C(version="1.0.0") to active UpstreamInfo list</text></g><path d="M272,1336.3047 L272,1391.3047 L478,1391.3047 L478,1346.3047 L468,1336.3047 L272,1336.3047" fill="#FEFFDD" style="stroke:#181818;stroke-width:0.5;"/><path d="M468,1336.3047 L468,1346.3047 L478,1346.3047 L468,1336.3047" fill="#FEFFDD" style="stroke:#181818;stroke-width:0.5;"/><text fill="#000000" font-family="sans-serif" font-size="13" lengthAdjust="spacing" textLength="134.5132" x="278" y="1353.3716">Active upstream list:</text><text fill="#000000" font-family="sans-serif" font-size="13" lengthAdjust="spacing" textLength="129.1113" x="278" y="1368.5044">CDA@7690 (v1.0.0)</text><text fill="#000000" font-family="sans-serif" font-size="13" lengthAdjust="spacing" textLength="185.2817" x="278" y="1383.6372">SOVD Server@7690 (v1.0.0)</text><!--SRC=[hLLHRzem47xthpXbBp01eNtekcYf6iBMLjjALUXKQPgGIHomH6BFDZ1KyTzt2Gaa35ZHbgV4_lpvxhxlBeQRAOD-xriNRgXX2xeaX0P6AB2onLuKZGHL8VXJpX9Z0TNvAv5K6HvmIHEJWtE635ImLL1nzxuFZqnBaOHCPRYlkBI7gi_KF4TurMr_IhNc0NGv7IT2umP2GYfD3kyGuhhPUHumHEb08DCI7YPKCt1TGZneNcNtEdWGzmp7ZQ4Myx0rD85iJKL0fr2JGXdttSNxTfrqJZv14c4OA3wU613HfXfP0GRF0on285Je41RCXZnqNx2Wt2nNcAgPk7R-sKo_LWGlr5maxloCi2I4b9cGD9eqgfpPWNjXUBIivOa_oGPur-jOzeVovZjAmEUircMZsRY1geg4rNyGEHk1DceM67YI-C9eV9T40bu8u9FkyaGRcWHicD2OET0tYYT8K7ri6rXht0AhIAsrMozhGpX16OznLGdNVAr0n5i66eQAQUr0JneirOSxwU7ALMEN0K5YEcSXt3ripgQgEJ0xkzXxxSxjQKMt9r6UeLGiuhyEXxw9kr1rPLjaLL8o5oGLqtFWTZ1uW9kF0wYQmCvDqEIeHUhWilJdxJRqFiDBZd70EckrMsrhLURUe9zaYA_WrGfVvUWw607O- -Y9gl9Jhish3DV93LUwjLFEg993vrzoG7MXSoo1MPv07lp-5l3sO1rIcZzPFb2RP_nrudUzdPMjYZXpxeMASGpq95CqTM4sRDR3iXBykXPdTZ199vcsgUGsIa9tdF19g4KwUHNxEMFQGEsvcI-niFcsVi04jGdwKJSW5c74qUWBRYO5LVCM6wqa3nvVXrUSpj8ej8UkM2Ix0xEVPcpT216Ebio2sc3mnSKw_CKSATDs7kqJz975EAQXL7k8b8WBEKzNiNDKARROfkb9oQZIMQP7VqG-yK_u3rosBy_hh-aQ_teDBPN5FzWr_d_eVF_4pZ-bx7-soE5sAYJv3G00]--></g></svg>